<svg xmlns="http://www.w3.org/2000/svg" width="42" height="42" viewBox="0 0 42 42">
  <g id="fb" transform="translate(-411 -7310)">
    <g id="icon_bg" data-name="icon bg" transform="translate(411 7310)" fill="#fff" stroke="#9c7c62" stroke-width="1" opacity="0.8">
      <circle cx="21" cy="21" r="21" stroke="none"/>
      <circle cx="21" cy="21" r="20.5" fill="none"/>
    </g>
    <path id="Icon_facebook" data-name="Icon facebook" d="M23.4,4.5H5.6A1.1,1.1,0,0,0,4.5,5.6V23.4a1.1,1.1,0,0,0,1.1,1.1h8.9V16.583H12.109V13.667H14.5V11.51a3.8,3.8,0,0,1,4.1-3.99c1.1,0,2.292.083,2.568.12v2.7H19.328c-1.255,0-1.495.594-1.495,1.469v1.859s2.34-.729,2.99,0-.391,2.917-.391,2.917h-2.6V24.5H23.4a1.1,1.1,0,0,0,1.1-1.1V5.6A1.1,1.1,0,0,0,23.4,4.5Z" transform="translate(417.5 7316.5)" fill="#9c7c62"/>
  </g>
</svg>
