<svg xmlns="http://www.w3.org/2000/svg" width="42" height="42" viewBox="0 0 42 42">
  <g id="ig" transform="translate(-497 -7310)">
    <g id="icon_bg" data-name="icon bg" transform="translate(497 7310)" fill="#fff" stroke="#9c7c62" stroke-width="1" opacity="0.8">
      <circle cx="21" cy="21" r="21" stroke="none"/>
      <circle cx="21" cy="21" r="20.5" fill="none"/>
    </g>
    <g id="Icon_instagram" data-name="Icon instagram" transform="translate(503.5 7316.5)">
      <path id="Path_1" data-name="Path 1" d="M18.667,6.167a4.179,4.179,0,0,1,4.167,4.167v8.333a4.179,4.179,0,0,1-4.167,4.167H10.333a4.179,4.179,0,0,1-4.167-4.167V10.333a4.179,4.179,0,0,1,4.167-4.167h8.333m0-1.667H10.333A5.85,5.85,0,0,0,4.5,10.333v8.333A5.85,5.85,0,0,0,10.333,24.5h8.333A5.85,5.85,0,0,0,24.5,18.667V10.333A5.85,5.85,0,0,0,18.667,4.5Z" fill="#9c7c62"/>
      <path id="Path_2" data-name="Path 2" d="M25.384,12.518a1.759,1.759,0,1,1,1.759-1.759A1.755,1.755,0,0,1,25.384,12.518Z" transform="translate(-5.783 -1.361)" fill="#9c7c62"/>
      <path id="Path_3" data-name="Path 3" d="M16.28,12.927a3.353,3.353,0,1,1-3.353,3.353,3.356,3.356,0,0,1,3.353-3.353m0-1.677a5.03,5.03,0,1,0,5.03,5.03,5.031,5.031,0,0,0-5.03-5.03Z" transform="translate(-1.78 -1.78)" fill="#9c7c62"/>
    </g>
  </g>
</svg>
