<svg xmlns="http://www.w3.org/2000/svg" viewBox="0 0 201.28 252.85"><defs><style>.cls-1{opacity:0.45;}.cls-2{fill:#d1a582;}</style></defs><title>資產 3</title><g id="圖層_2" data-name="圖層 2"><g id="圖層_1-2" data-name="圖層 1"><g class="cls-1"><path class="cls-2" d="M89,90.11c1.05-3.74,2.3-7.84,1.33-11.79a2.22,2.22,0,0,1,1-2.1,3.31,3.31,0,0,0,.94-4c-1.57-4.64-3.9-8.56-9.24-9.55-3.13-.58-4.6-2.93-5.53-5.55C74.16,47.7,72.2,38,73.64,27.94c1.34-9.38,6.87-16.77,12-24.3,1.1-1.61,3.19-1.81,5.08-1.8A7.83,7.83,0,0,0,95.5.59C97.34-.67,99,.15,99.37,2.42c.27,1.9,1.22,2.36,2.91,2.41,2.64.08,3,.52,2.39,3.08a4.09,4.09,0,0,0,.54,3c.81,1.49,1.55,2.94,1.28,4.8-.21,1.39.76,1.89,2,1.35,2.69-1.14,5.7-1.59,7.25-4.74.86-1.75,2.92-1.83,4.75-1.32,1.16.32,2.29.78,3.43,1.2,1.77.65,3.46.74,5-.56,1.09-.9,1.61-.53,2,.78,1.37,4.92,2.11,5.44,6.9,4.72,1.94-.29,2.81.47,2.8,2.29A11.41,11.41,0,0,0,141.82,25c.69,1.3.07,2.7-.14,4a7.76,7.76,0,0,0-.24,2.87c.27,1.35.86,2.06,2.33,1.53,2.22-.81,4.25-.74,6,1.18a2.17,2.17,0,0,0,2.06.44c2.3-.38,2.1.81,1.31,2.22-1.55,2.73-3.45,5.24-4.73,8.16-1.95,4.43-2.1,9.28-3.57,13.82a25.17,25.17,0,0,1-3.74,7.53c-2.34,3.11-4.67,6.19-5.76,10-.47,1.65-1.55,3-2.2,4.64a13.55,13.55,0,0,0,7.42-5.76,7.81,7.81,0,0,1,3.65-3.26,12.4,12.4,0,0,0,6.14-6.28c.93-2,1.91-3.38,4.4-3.33,1.64,0,3-1.13,4.32-2.06,1.85-1.31,3.66-1.61,5.6-.29s3.85,1,5.84.49,3.18-.11,3.54,2c.09.54.35,1.42.67,1.49,2.57.55,2.26,3,3,4.62s.58,3.22-1.51,4.17c-3,1.37-4.57,4.3-6.47,6.79-.66.86-1.08,2-1.85,2.8l0,0c.45-4.5-.61-9.17,1.6-13.48.51-1-.32-1.05-1-1a9.23,9.23,0,0,1-4.9-1.8c-.86-.54-1.57-.8-2.41-.17-4.28,3.24-10.36,3.67-13.54,8.67-.22.35-.89.38-1.25.68-3,2.51-7,3.27-10,5.67a71.61,71.61,0,0,1-7.47,5.73,51.22,51.22,0,0,0-12.44,10.57,20.09,20.09,0,0,1-7.14,5.61,22.12,22.12,0,0,1-7,1.93c-1.6.12-2.7.56-1.27,2.57a37.09,37.09,0,0,1,2.75,5.63l0,0c-1.55-.44-1.94-1.79-2.37-3.07-.84-2.51-2-3.28-4.48-2.41a62.64,62.64,0,0,0-8.68,3.63l.91-1.1a3.44,3.44,0,0,1,2.4-1.89,40.28,40.28,0,0,1,4.64-1.36c1.13-.27,1.68-.68,1.43-2-.31-1.64.06-3.74-1.72-4.49-1.59-.67-2.65,1.14-3.93,1.89-2.11,1.24-7.9,4.1-10.48,4.43,2.44-1.86,9-4.53,11.49-6.27,2-1.36,1.92-3.46-.29-4.25s-3.5-2.48-4.79-4.22c-.59-.79-1.14-1.75-2.26-1.55-5.23.94-10-1.36-14.93-2.32a18.43,18.43,0,0,0-8.44-.2c-6.81,1.65-12.52,4.53-16,11a6.57,6.57,0,0,1-4.22,3.38,3.74,3.74,0,0,0-2.9,3.47,27.92,27.92,0,0,1-2.33,9.08,5.28,5.28,0,0,0,1.22,6.47,9.74,9.74,0,0,1,3.1,8.75,29.49,29.49,0,0,0,0,3.39,6.16,6.16,0,0,0,2.61,5.2,19,19,0,0,1,1.74,1.65h0c-4.06-1.46-5.65-3.87-5.56-8.5,0-1.21.1-2.42.17-3.63A6.65,6.65,0,0,0,37.89,123a7,7,0,0,1-1.5-9.12,16.83,16.83,0,0,0,1.86-7.19A4.78,4.78,0,0,1,41,102.18a10.63,10.63,0,0,0,5.24-5c3.2-5.83,9-7.71,14.92-9.34a17.19,17.19,0,0,0,3.93-1.15,2.89,2.89,0,0,1,2.81-.07c4.62,2.36,9.91,2,14.77,3.57a9.16,9.16,0,0,0,6.58-.44c0,3.64.74,5.1,2.91,5.67,2.76.72,4.67-.25,6.22-3.61a36.78,36.78,0,0,1,5.72-8.21c3.61-4.27,4.71-5.87.42-10.78a4.84,4.84,0,0,1-1-1.88c-.73-2.8-1.49-3.07-3.81-1.13-1.65,1.38-3.25,2.84-4.93,4.18-1.51,1.21-3.57,2.76-3,5.59C92.47,83.25,92,88.11,89,90.11Zm20.17-53.95c.1,3.57-2.3,6.73-1.5,10.38.37,1.69-.42,3.33-1.15,4.88a16.62,16.62,0,0,0-1.66,5c-.07.61-.24,1.37.51,1.72a1.36,1.36,0,0,0,1.53-.49c3.15-3.28,7-5.65,10.52-8.51a68.75,68.75,0,0,1,15-9.73C137,37.37,141,35,140.57,28.87c-.14-1.75.23-3.49-.72-5.16a5,5,0,0,1-.61-2.56c.11-2.12-.72-2.93-2.85-2.72-2.91.29-5.3-.5-6.37-3.58-.16-.47-.5-1-1-.81-3.25,1.1-6-.53-8.82-1.59-1.92-.71-3.34-.23-4.08,1.75a3.41,3.41,0,0,1-2.84,2.3,12,12,0,0,0-4.66,1.94c-1.14.79-2.75.53-2.77-.62-.06-3.44-2.4-6.19-2.5-9.52,0-1.27-.47-1.93-1.79-2.07A3.78,3.78,0,0,1,98.07,3c-.41-1.75-1.37-1.86-2.61-.84a3.27,3.27,0,0,1-2.71.76c-4.66-.81-7,2.18-8.89,5.59a60.67,60.67,0,0,1-3.5,5.8c-5.35,7.38-6.83,15.65-6,24.56a84.63,84.63,0,0,0,2.29,11.85c1.19,4.91,2.53,9.88,8.42,11.73,4,1.25,6.48,4.36,8,8.23.88,2.27,2,2.5,3.59.57a33.89,33.89,0,0,0,3.1-4.62c2-3.49,4-6.66,4.42-11.12.45-4.63,2.26-9.21,3-14,.65-4.44,1.26-8.74.65-13.18-.1-.72-.63-1.55.52-2.41,1,5.29,1.05,13.37,4.6,18.29,2.1,2.92,2,4.85,2.93,7.39-.27.05-.55-.9-.82-.84-1-3.62-4.23-5.53-4.46-8.13C110.34,40.28,109.14,38.27,109.18,36.16Zm-8.82,55.14c3-2.23,6.51-2.7,10-3.35,2.79-.52,4.13-2.61,4.34-5.6.11-1.53.69-3,2.1-3.59,4.35-1.7,7.61-5.57,12.48-6.18a1.69,1.69,0,0,0,1.17-.79A25.07,25.07,0,0,0,135,62.55c.52-2.42,1.29-4.82,3.5-6.45,1-.77,1.4-2.1,1.91-3.3,2-4.62,1.29-9.72,2.79-14.44-.91,0-1.06.78-1.52,1.19-3.47,3.17-6.21,7.36-11.41,8.12a1.91,1.91,0,0,0-1.4,1.23,13.69,13.69,0,0,1-4.24,4.88,10.43,10.43,0,0,0-3.26,3.53,8.79,8.79,0,0,1-4.89,4.76,3,3,0,0,0-1.83,2.11c-.42,1.39-1,2.73-1.43,4.1s-.82,2.24-2.59,2.29c-1.41,0-2.29,1.64-3.35,2.57-.87.76.3,1.77.63,2.6a5.4,5.4,0,0,1-.31,4.34,16.33,16.33,0,0,1-4.81,6.21A7.27,7.27,0,0,0,100.36,91.31Zm14.41-4.8c.59-.06.89-.08,1.18-.12.76-.11,1.62-.79,2.23.07s0,1.55-.37,2.27a6.8,6.8,0,0,0-.81,3.5c0,.7-.25,1.58.56,2s1.34-.39,1.83-.86c3.56-3.4,7.12-6.8,10.62-10.25a20.55,20.55,0,0,0,4.66-7.83,18.64,18.64,0,0,1,3.26-5.88c3.26-3.82,6-8,6.71-13.13.85-6.3,2.57-12.31,6.35-17.57.85-1.19,1.52-2.08-.88-2.41-2.83-.38-3.52-.35-5.09,2.25-.92,1.52-2.14,3.07-1.74,4.91.84,3.88-1.57,6.94-2.29,10.42a4.38,4.38,0,0,1-1.19,2.07,15.4,15.4,0,0,0-4,7.6c-.83,3.44-2.88,6.28-4.48,9.35a2.4,2.4,0,0,1-2.39,1.37,7.49,7.49,0,0,0-6.21,2.7,7,7,0,0,1-3.12,1.77c-1.31.42-2.93,1.08-3,2.47A14.39,14.39,0,0,1,114.77,86.5ZM144,35.31a15.89,15.89,0,0,0-6.29,2.25,175.42,175.42,0,0,0-16.63,10.31c-5.18,3.73-10.4,7.38-15,11.84a22.92,22.92,0,0,0-4.49,6c-.42.83-.63,1.79.76,1.5,2.21-.45,1.94,1,2,2.28.06,1,0,2.13,1.23,2.33a2.41,2.41,0,0,0,2.92-1.59c.27-.76.44-1.88,1.3-1.89,3.33,0,3.21-2.71,3.67-4.75.39-1.76,1.15-2.75,2.94-3a3.07,3.07,0,0,0,2.42-1.44c2.16-3.91,5.38-6.95,8.21-10.31a8.6,8.6,0,0,1,4.74-3.09,8.29,8.29,0,0,0,2.41-1.07C138.14,42.28,140.36,38.13,144,35.31ZM141.3,77.73c2.71-2.49,6.87-3,8.63-6.68a3.12,3.12,0,0,1,2.1-1.51c3.31-1,6.57-2.11,9.26-4.44,1-.85,2-.68,3.12-.06,1.54.84,3,1.82,4.91,1.89s2.38,1.08,1.83,2.94c-.5,1.69-1.47,3.27-1.42,5.1,0,.6-.14,1.44.67,1.63s.87-.59,1.14-1.05a5.29,5.29,0,0,1,3.08-2.87c2.12-.62,2.31-1.58,1.42-3.61-1-2.27-3.22-3.81-3.57-6.47-.14-1-1.19-.88-2-.6-1.39.49-3,1.1-4.23.33-3.8-2.28-7-.94-10.32,1.1a5,5,0,0,1-2.07.58,2.17,2.17,0,0,0-2,1.47,16.57,16.57,0,0,1-7.51,8.19A5.14,5.14,0,0,0,141.3,77.73ZM115.49,93.67c-.24-.49.17-2-1-1.5C112,93.1,109,92.48,107,95a4.46,4.46,0,0,1-4.73,1.72,2.3,2.3,0,0,0-2,.67c-2.39,1.69-2.62,3.88-1.83,6.48.32,1,.84,1.22,1.78,1a41.25,41.25,0,0,0,10.15-3C113.84,100.26,115.21,97.42,115.49,93.67Zm1.78-5.94c-2.56.6-4.45,1.49-6.3,1.4-5.53-.27-9.51,2.61-13.33,6-1,.85-2.84,1.81-1.65,3.22,1.32,1.56,2.48-.24,3.56-1.11.84-.68,1.47-2.26,2.67-1.72,2.38,1.07,3.65-.38,5-1.72s2.73-2.7,4.55-2.42C114.57,91.75,115.71,90.19,117.27,87.72Z"/><path class="cls-2" d="M69.8,228.58c.5-1.44,3.89-4,5-4.78,5.29-4,9-9.41,13.16-14.46a89.35,89.35,0,0,1,23.46-20c8-4.78,26.53-5.14,27-4.85a12.88,12.88,0,0,1-4.91.42c-10.43,0-19.78,3.05-27.48,10.17A80.41,80.41,0,0,0,97,205.21c-4.87,6.34-9.46,12.89-14.23,19.3A42.37,42.37,0,0,1,72.15,235c-2.54,1.66-3.63,3.65-3.28,6.6.38,3.23-.75,6.22-1.59,9.25-.24.84-.57,1.91-1.57,2-1.22.06-1.11-1.18-1.33-2-2.21-8-6.66-14.62-12.34-20.56-8.41-8.8-12.75-19.41-13.86-31.48-.51-5.57-2.27-10.91-4-16.21C32.64,177.71,30.5,173,29,168c-1.71-5.79-5.16-10.79-7.13-16.4C18.8,142.78,1.85,126.76,0,124.73a19.76,19.76,0,0,1,6.05,4.76c4.58,4.9,10.17,8.72,14.48,13.93,4.46,5.4,7.28,11.59,9.65,18.06,2.22,6.07,5.09,11.87,7.57,17.83s5.26,12.14,7.92,18.2A38.72,38.72,0,0,0,55.32,211c2.83,2.53,4.78,5.86,6.56,9.22.3.56.56,1.27,1.37,1.15.61-.09.89-.63,1.12-1.17,1.71-4.09,3.83-8.06,5.08-12.29,3.59-12.17,9.06-23.72,11.73-36.16A76.78,76.78,0,0,0,83,157.07c0-1.93-.49-3-2.71-2.24A20.92,20.92,0,0,0,76.61,156a9.8,9.8,0,0,1-9.75,0,11,11,0,0,0-6.33-1.24,53.3,53.3,0,0,1-9.42.36c-1.53-.1-3.11,1.16-2.53-2.33.68-4.07.83-8.8-3-12.13l-1-1c1.06.15,2.71,1.89,3.31,2.66a10.12,10.12,0,0,1,2,7.3c-.29,4,.17,4.13,4.25,4.71a11.62,11.62,0,0,0,3.61-.34,14.46,14.46,0,0,1,10.32,1.46,6.06,6.06,0,0,0,5.39.4c5.39-2.13,11.65-2.13,16.14-6.52a10.6,10.6,0,0,1,2.62-1.41l-1,1c-1.78,1.27-2.83,3.69-4.95,4.15s-2.32,1.69-2.33,3.42c-.07,8.31-2,16.29-4.12,24.27-1.63,6.2-4.65,11.89-6.36,18a139.42,139.42,0,0,1-9,23.49c-.28.57-.82,1.13-.41,1.79,1,1.66,2.14,3.27,3.33,5.07,1.69-2.6,1.57-5.41,2.54-7.87,2.57-6.53,5.07-13.08,7.73-19.58C81.6,192,84.73,182,88.14,172c1.38-4,3.6-10.16,6.5-13.47l-1,2c-2,5.19-4.35,10.27-5.81,15.6-2.63,9.62-6.9,18.61-10,28-1.78,5.36-4.19,10.5-6.34,15.73a29.48,29.48,0,0,0-1.89,6.9c.92.38,1.52-.31,2.23-.28-.76.83-1.48,1.71-2.29,2.48-1.71,1.62-1.72,3.52-1.06,5.58.3.95.8,1.13,1.62.61a46.17,46.17,0,0,0,11.73-11c5.73-7.39,10.48-15.5,16.71-22.51,1.09-1.22,2.6-2.11,3.31-3.86a4.54,4.54,0,0,0-2.32,1.44c-4.71,4.75-9.92,9-13.73,14.63a39.53,39.53,0,0,1-6.42,7.21C77.06,223.16,72.91,227.58,69.8,228.58ZM20.28,145.11a5.56,5.56,0,0,0,.16,1.13c3.3,6.74,6.69,13.44,9.13,20.55,3.45,10.07,8,19.79,9.57,30.45.36,2.47.4,5,1,7.44,2.09,9.2,5.92,17.53,12.35,24.59,4.74,5.21,9.18,10.66,11.64,17.42.3.83.64,1.66,1,2.46s1,1,1.48,0a6,6,0,0,0,.61-1.58c1.21-7.34,1-14.56-2.92-21.12-1.68-2.85-3.21-5.79-5-8.55a38.93,38.93,0,0,0-5.42-6.81,37.93,37.93,0,0,1-7.36-9.84c-4-7.64-7-15.78-10.61-23.61-4.08-8.78-7.1-18-11.51-26.68A31.11,31.11,0,0,0,20.28,145.11Z"/><path class="cls-2" d="M167.88,82.92c-1.45,3.34-4.59,4.61-7.55,6-2.28,1.08-3.27,2.74-3,5.84.21,2.73,1.2,4.25,3.94,4.34,6.7.23,11,4.65,15.94,8.21,5.92,4.29,9.77,10.21,13.57,16.21a9.87,9.87,0,0,0,3.8,3.6,5.87,5.87,0,0,1,3.06,6.77,9,9,0,0,0,1.81,8.86c4.49,5.47.06,9.88-4.91,10.39-.56.06-1.13.07-1.69.13-2.52.28-3.55,1.84-2.78,4.22,1.29,4-.19,5.86-4.36,6.11-3.95.23-7-1.79-10.09-3.57a9,9,0,0,0-6.19-1.41c-4.23.74-7.44-1.29-10.23-3.74a21.27,21.27,0,0,1-7.09-11.58c-.51-2.35-1.45-4.6-3.76-6-5.5-3.31-6.9-8.4-6-14.42s-1.45-8.77-7.45-9.37c-5.5-.54-10.51,1.31-15.61,2.8a5.9,5.9,0,0,0-2.41,2c-5.15,5.47-9.71,11.26-10.6,19.12a6.42,6.42,0,0,1-1.79,4.18c-4.89,4.25-6.45,10.3-8.85,15.91a8.43,8.43,0,0,1-1.91,3h0c1.36-4.46,2.92-9.64,5.73-14.49-3.29.54-11.37,5-9.16,2.85h1c.37-.81,1.21-1,1.88-1.41,2.66-1.66,5.91-2.25,8.24-4.47,3.65-3.47,4.31-8.15,4.85-12.78.35-2.94-.11-5.93,0-8.91.05-2.76.43-5.84-2.3-7.87l0,0a3.19,3.19,0,0,1,2.32,1.18c1,1.87,2.26,1.24,3.63.6,4.74-2.22,9.41-4.44,13.52-7.86a96.19,96.19,0,0,1,31.36-17.86c3.14-1,6.34-1.82,9.19-3.64,1.43-.92,2.38-2.45,4.06-3Zm-47.39,28c3,.29,5.42.14,7.81.57a48.73,48.73,0,0,0,7.17,1.12c5,.16,8.2,3.59,8.22,8.61a24.61,24.61,0,0,1-.18,4.11c-.79,4.78.94,8.35,4.93,11,2.13,1.39,4.22,3,4.56,5.67.58,4.71,3.39,8.18,6.3,11.5,2.3,2.62,5.39,4.72,9,4.34a11.69,11.69,0,0,1,7.39,1.31A20.81,20.81,0,0,0,186,162.22c2.5,0,4.1-2.08,3.2-4.31a3.85,3.85,0,0,1,3.19-5.61,36.19,36.19,0,0,0,3.83-.53c4-1.06,5-3.42,3-7-.81-1.49-1.69-2.95-2.42-4.48a7.12,7.12,0,0,1-.42-5.41c1-3.28,0-5.57-3-7.31a6.73,6.73,0,0,1-2.36-2c-4.21-6.08-8.13-12.38-14.1-17.05-4.39-3.43-8.58-7-14.38-7.85-5.57-.85-6.39-1.85-6.37-7.41,0-2.26-.77-2.47-2.78-2.08-3.09.6-5.49,2.71-8.46,3.5-.54.15-1.22.22-1.36.85-.2.86.62,1.13,1.16,1.3,2.41.77,4.07,2.4,5.74,4.22s2.93,3.94,5.17,5A22.6,22.6,0,0,1,166,116.51a23.74,23.74,0,0,0,4.76,6.38c5.95,5.67,9,12.87,10.77,20.72.08.37.15.83-.31.94a6.6,6.6,0,0,1-.61-.88l-.63-.92-1.26-1.83c-.84-1.21-1.69-2.41-2.56-3.6a71,71,0,0,0-5.54-6.77,44,44,0,0,0-6.69-5.82l-.92-.65c6.2,2.61,10.76,7.94,15.07,13.1-1.61-5.27-5.41-9.52-8.64-14-3.09-4.28-5.75-8.93-9.55-12.6-3.13-3-7-5.31-9.92-8.5a43.72,43.72,0,0,0-3.34-3.59,6.44,6.44,0,0,0-4.44-1.78A8.42,8.42,0,0,0,139,97.8a43.62,43.62,0,0,0-9.14,5.89c-.61.53-1.23,1.4-.76,2a1.22,1.22,0,0,0,.86.42c1.39.15,2.57-1,3.91-1.39a7.64,7.64,0,0,1,4.33.44c3.31,1,6.71,2.06,9.42,4.23a19.11,19.11,0,0,1,5.2,7.09,11.16,11.16,0,0,0,2.36,3.92,10.77,10.77,0,0,0,3.64,1.78,37.79,37.79,0,0,1,6.15,2.85c-.17-.11,0,0-.68-.19-.27-.09-.55-.15-.82-.23l-1.63-.5c-1.1-.35-2.18-.73-3.25-1.16a12.91,12.91,0,0,1-5.37-3.38,4.16,4.16,0,0,1-.7-1.23,40.26,40.26,0,0,0-2.32-4.42c-3.06-6.26-9.2-6.78-14.79-8.35a2,2,0,0,0-1.38.26,6.5,6.5,0,0,1-4.45.81C125.88,106.14,123.4,108.24,120.49,110.88Zm7.28,1.81c-7.36-1.52-13.72.93-19.63,5a2,2,0,0,0-.54,3c.86,1,1.7-.12,2.47-.59.27-.17.51-.4.78-.57,3.71-2.17,7.07-5,11.74-5.2A8.58,8.58,0,0,0,127.77,112.69Zm-13,6c-5.72,1.86-7.64,4.47-7,9.69A118.49,118.49,0,0,1,114.82,118.73Z"/><path class="cls-2" d="M89.32,110.64a24.43,24.43,0,0,1-10,9.14,9.73,9.73,0,0,0-3,2.79,8,8,0,0,1-2,2.09c-5.48,2.89-9.2,7.53-12.84,12.39.18-2.13,1.43-3.87,2.24-5.74a54.63,54.63,0,0,1,10.36-15.64,8.31,8.31,0,0,0,1.66-2.93,4.73,4.73,0,0,1,2.91-3,3.79,3.79,0,0,0,2.15-1.82c.44-.85,2.16-2.31,3.28-2-1.29,1.47-3.45,3.94-5.3,4.67A2.72,2.72,0,0,0,77,112.14c-1.42,5.24-6.27,8.1-8.71,12.63-.76,1.41-1.89,2.61-2,4.44,2.34-3.69,7.39-3.84,9.64-7.79a8.75,8.75,0,0,1,3.71-3,17,17,0,0,0,7.45-6.32,7.77,7.77,0,0,1,3.11-2.53Z"/></g></g></g></svg>