<svg xmlns="http://www.w3.org/2000/svg" width="42" height="42" viewBox="0 0 42 42">
  <g id="mail" transform="translate(-646 -7310)">
    <g id="icon_bg" data-name="icon bg" transform="translate(646 7310)" fill="#fff" stroke="#9c7c62" stroke-width="1" opacity="0.8">
      <circle cx="21" cy="21" r="21" stroke="none"/>
      <circle cx="21" cy="21" r="20.5" fill="none"/>
    </g>
    <path id="Icon_zocial-email" data-name="Icon zocial-email" d="M.072,18.926V5.512q0-.023.07-.442l7.895,6.754L.165,19.392a1.974,1.974,0,0,1-.093-.466ZM1.12,4.138a1,1,0,0,1,.4-.07H22.778a1.319,1.319,0,0,1,.419.07l-7.918,6.777-1.048.838-2.073,1.7-2.073-1.7-1.048-.838ZM1.143,20.3l7.941-7.615,3.074,2.492,3.074-2.492L23.174,20.3a1.118,1.118,0,0,1-.4.07H1.516a1.055,1.055,0,0,1-.373-.07Zm15.137-8.477,7.871-6.754a1.39,1.39,0,0,1,.07.442V18.926a1.785,1.785,0,0,1-.07.466Z" transform="translate(654.853 7318.781)" fill="#9c7c62"/>
  </g>
</svg>
