<svg xmlns="http://www.w3.org/2000/svg" width="42" height="42" viewBox="0 0 42 42">
  <g id="購物車按鈕" transform="translate(0 0.397)">
    <circle id="icon_bg" data-name="icon bg" cx="21" cy="21" r="21" transform="translate(0 -0.397)" fill="#fff" opacity="0.8"/>
    <path id="Icon_awesome-shopping-cart" data-name="Icon awesome-shopping-cart" d="M20.63,11.77l1.847-8.125A.938.938,0,0,0,21.562,2.5H6.219L5.861.75A.937.937,0,0,0,4.943,0H.938A.937.937,0,0,0,0,.937v.625A.937.937,0,0,0,.938,2.5h2.73L6.411,15.915a2.188,2.188,0,1,0,2.619.335H17.22a2.187,2.187,0,1,0,2.484-.406l.216-.948a.938.938,0,0,0-.914-1.145H8.52L8.265,12.5H19.716A.937.937,0,0,0,20.63,11.77Z" transform="translate(8.75 13)" fill="#9c7c62"/>
  </g>
</svg>
