<svg xmlns="http://www.w3.org/2000/svg" width="42" height="42" viewBox="0 0 42 42">
  <g id="close_icon" data-name="close icon" transform="translate(-64 0.397)">
    <circle id="icon_bg" data-name="icon bg" cx="21" cy="21" r="21" transform="translate(64 -0.397)" fill="#fff" opacity="0.8"/>
    <path id="Path_33" data-name="Path 33" d="M24.625,25.875H5.375A1.027,1.027,0,0,1,4.5,24.75h0a1.027,1.027,0,0,1,.875-1.125h19.25A1.027,1.027,0,0,1,25.5,24.75h0A1.027,1.027,0,0,1,24.625,25.875Z" transform="translate(91.894 -7.151) rotate(45)" fill="#9c7c62"/>
    <path id="Path_34" data-name="Path 34" d="M24.625,25.875H5.375A1.027,1.027,0,0,1,4.5,24.75h0a1.027,1.027,0,0,1,.875-1.125h19.25A1.027,1.027,0,0,1,25.5,24.75h0A1.027,1.027,0,0,1,24.625,25.875Z" transform="translate(113.108 27.851) rotate(135)" fill="#9c7c62"/>
  </g>
</svg>
