<svg xmlns="http://www.w3.org/2000/svg" width="42" height="42" viewBox="0 0 42 42">
  <g id="會員登入按鈕" transform="translate(0 0.397)">
    <circle id="icon_bg" data-name="icon bg" cx="21" cy="21" r="21" transform="translate(0 -0.397)" fill="#fff" opacity="0.8"/>
    <path id="Icon_person" data-name="Icon person" d="M25.827,23.995c-.4-1.656-2.684-2.464-3.473-2.724a27.447,27.447,0,0,0-2.9-.521,3.032,3.032,0,0,1-1.339-.578,10.289,10.289,0,0,1-.089-2.568,7.581,7.581,0,0,0,.633-1.13,13.793,13.793,0,0,0,.467-1.974s.456,0,.617-.75a6.984,6.984,0,0,0,.411-1.745c-.033-.6-.383-.583-.383-.583a8.609,8.609,0,0,0,.378-2.672c.05-2.141-1.739-4.25-4.979-4.25-3.284,0-5.034,2.109-4.984,4.25a8.977,8.977,0,0,0,.372,2.672s-.35-.016-.383.583a6.984,6.984,0,0,0,.411,1.745c.156.75.617.75.617.75a13.793,13.793,0,0,0,.467,1.974,7.581,7.581,0,0,0,.633,1.13,10.289,10.289,0,0,1-.089,2.568,3.032,3.032,0,0,1-1.339.578,27.447,27.447,0,0,0-2.9.521c-.789.26-3.073,1.068-3.473,2.724a.424.424,0,0,0,.439.505H25.394A.423.423,0,0,0,25.827,23.995Z" transform="translate(5.831 6.5)" fill="#9c7c62"/>
  </g>
</svg>
