<svg xmlns="http://www.w3.org/2000/svg" width="42" height="42" viewBox="0 0 42 42">
  <g id="menu_icon" data-name="menu icon" transform="translate(-64 0.397)">
    <circle id="icon_bg" data-name="icon bg" cx="21" cy="21" r="21" transform="translate(64 -0.397)" fill="#fff" opacity="0.8"/>
    <g id="Icon_ionic-ios-menu" data-name="Icon ionic-ios-menu" transform="translate(75 12.803)">
      <path id="Path_30" data-name="Path 30" d="M23.667,10.125H5.333a.871.871,0,0,0-.833.9h0a.871.871,0,0,0,.833.9H23.667a.871.871,0,0,0,.833-.9h0A.871.871,0,0,0,23.667,10.125Z" transform="translate(-4.5 0.275)" fill="#9c7c62"/>
      <rect id="Rectangle_44" data-name="Rectangle 44" width="13" height="1.8" rx="0.9" transform="translate(7 15.6)" fill="#9c7c62"/>
      <path id="Path_35" data-name="Path 35" d="M23.667,10.125H5.333a.871.871,0,0,0-.833.9h0a.871.871,0,0,0,.833.9H23.667a.871.871,0,0,0,.833-.9h0A.871.871,0,0,0,23.667,10.125Z" transform="translate(-4.5 -10.125)" fill="#9c7c62"/>
      <rect id="Rectangle_46" data-name="Rectangle 46" width="13" height="1.8" rx="0.9" transform="translate(7 5.2)" fill="#9c7c62"/>
    </g>
  </g>
</svg>
