<svg xmlns="http://www.w3.org/2000/svg" viewBox="0 0 205.43 266"><defs><style>.cls-1{opacity:0.45;}.cls-2{fill:#fefefe;}.cls-2,.cls-3,.cls-4,.cls-5,.cls-7,.cls-8,.cls-9{opacity:0.75;}.cls-3{fill:#fdfdfd;}.cls-4,.cls-6{fill:#d1a582;}.cls-5{fill:#ddbba1;}.cls-7{fill:#fcfcfc;}.cls-8{fill:#fafafa;}.cls-9{fill:#f8f7f7;}</style></defs><title>資產 2</title><g id="圖層_2" data-name="圖層 2"><g id="圖層_1-2" data-name="圖層 1"><g class="cls-1"><path class="cls-2" d="M96,50.88c-1.45-.79-1.84-1.43,0-2.4a16.27,16.27,0,0,1,11.54-2c3.53.68,6.43,2.87,10,3.07a3.48,3.48,0,0,0,1.73-.12,11,11,0,0,1,8.2-.67c-1-3-1.82-5.65-2.7-8.25-.49-1.45-.88-2.73.61-4,1-.84.75-6.21-.23-7.15a3.06,3.06,0,0,1-.76-3.12,66.67,66.67,0,0,1,5.37-16.73,3.09,3.09,0,0,1,3-2.08A10.22,10.22,0,0,0,139,5.59c3.38-2,5.89-1.81,7.54.38a9.3,9.3,0,0,1,1.63,3.5c.35,1.58.89,1.89,1.88.61,2.38-3.08,6-4.89,8-8.44,1.36-2.46,3.88-2.05,4.84.59a8.1,8.1,0,0,0,3.47,4.7,3,3,0,0,1,1.27,3.44,24.78,24.78,0,0,0,2.51,17.16,10.52,10.52,0,0,1,0,10,51.28,51.28,0,0,0-4.54,16.74,17.41,17.41,0,0,1-.69,3.56c-.21.65-.76,1.42-.13,1.93s1.29-.12,1.94-.31c1.09-.31,2.21-.52,3.26-.91a4.7,4.7,0,0,1,5.44,1.37A6.36,6.36,0,0,0,182,62c3.11-.76,7.67,2.07,9.5,5.68s2.93,7.42,5.1,10.85a37.83,37.83,0,0,0,4.88,6.4A12.46,12.46,0,0,1,205,96.06a25.38,25.38,0,0,0,.07,7.82c.59,3.31.16,6.58.16,9.85a3.47,3.47,0,0,1-2.6,3.55c-1.95.41-2.47-1.32-3-2.64a12,12,0,0,0-4.75-5.39A74.74,74.74,0,0,1,183.64,100c-6.51-6.41-14.74-9.65-23-12.79-2-.77-3.69.56-5.14,1.85-2.4,2.13-3.67,5-5.24,7.74a77.19,77.19,0,0,1-8.5,12.07c-2.39,2.74-2.23,6.14-3.1,9.25-1.72,6.15-4.52,11.85-6.89,17.73-1.2,3-2.52,5.92-3.89,8.83-.62,1.31-.45,2.15.9,2.71a5.86,5.86,0,0,1,3.57,4.52c.32,1.54,1.54,2.49,2.25,3.77,1,1.74,1.15,3.49-.1,5.09s-3.05,1.32-4.72.48a16.92,16.92,0,0,0-4.84-1.92,2.67,2.67,0,0,0-3.4,1.88c-5.18,12.28-8,25.33-12.4,37.85-2.69,7.6-4.11,15.59-7.13,23.1a5.12,5.12,0,0,0-.65,3.42c1.85-1.09,3-2.76,4.62-3.94a1.88,1.88,0,0,1,2.66,0c.15,1-.57,1.58-1.15,2.2-2.67,2.84-5.63,5.39-8.14,8.4-.55.67-1.32,1.35-2.24.85s-.77-1.53-.53-2.35c.87-3,1.53-6,2.38-9,4-10.75,6.94-21.84,10.38-32.76,2.5-7.93,4.78-15.94,7.45-23.83.72-2.13,1.77-4.16,2.46-6.31a3.36,3.36,0,0,1,2.35-2.57c2.43.37,5-.3,7.27,1.24,1,.59,2.22,2.22,3.26,1s-.74-2.2-1.48-3.18c-.16-.21-.33-.4-.48-.61-1-1.24-.47-3.06-1.68-4.2a14.65,14.65,0,0,0-2.89-1.46c-1-.72-1.92-1.45-1.66-2.88A126.15,126.15,0,0,0,131,130a8.38,8.38,0,0,1,.77-1.81,41.85,41.85,0,0,0,4.73-13.76,17.23,17.23,0,0,1,4.69-9.37,32,32,0,0,0,6-9.09A3.65,3.65,0,0,1,148.45,94c1.07-.93,1.5-2.27,2.21-3.44a12,12,0,0,1,4.84-4.82c1.9-1.07,3.84-1.95,6.11-1.28,4.08,1.94,8.37,3.39,12.41,5.46a54,54,0,0,1,13.78,10.21,52.45,52.45,0,0,0,8.12,6.54c2.49,1.67,4.9,3.35,5.78,6.44.1.36.16.34.73.49-4.15-7-10.68-12.52-16.76-18.41-2.67-2.8-6.09-4.52-9.38-6.43a63.24,63.24,0,0,0-8.52-4C163.42,83.33,159,83.4,155,86.08c-1.62.54-2-.4-1.61-1.61,1.2-3.81,2.4-7.61,3.34-11.5a2.47,2.47,0,0,1,3.1-1.77c9,1.79,18.35,2.62,25.4,9.56.75.74,1.71,1.2,2.44,1.95,1.85,1.85,2.72,4.29,3.41,5.55-.58-1-1.2-3.14-2.38-5-1.76-3.46-3.76-6.73-7-9A17.78,17.78,0,0,0,174.72,70c-3.13-1.5-6.75-1.2-9.89-2.71-.91-.44-2-.47-2.56-1.54.2-1.67,1.73-2.09,2.85-2.57a29.72,29.72,0,0,1,4-1.58c2-1.1,3.53-.89,5.23,1a7.33,7.33,0,0,0,6.87,2.27c3.66-.67,6.33.74,8,4.14s2.49,6.88,4.64,9.91c-2.07-3-2.94-6.46-4.5-9.66-1.82-3.74-4.3-5.08-8.33-4.38a7.31,7.31,0,0,1-6.63-2.28c-1.71-1.82-3.19-2.15-5.23-1a40.1,40.1,0,0,0-6.72,3.06c-.85.52-1.75,1.2-2.8.32,0-2.68,1.9-4.72,2.47-7.25a24.89,24.89,0,0,0,1-5c0-5.06,1.79-9.65,3.29-14.34a6.53,6.53,0,0,1,.81-1.94c1.54-2.18,1.94-4.67.54-6.87-3.24-5.13-3.73-10.72-3.43-16.52.1-2,.32-3.92-1.92-5.12-.89-.47-1-1.77-1.51-2.68-.38-.65-.53-1.59-1.56-.4-2.9,3.34-6.41,6.08-9.24,9.51-1.37,1.66-3.19,1.14-4.08-.92-.52-1.21-.54-2.55-1-3.79-.87-2.47-1.34-2.71-3.84-1.77a6.47,6.47,0,0,0-1.91.84c-1.67,1.42-3.22,2.9-5.72,1.72-.52-.24-1,.39-1.35,1a45.29,45.29,0,0,0-5.12,26.25,21.84,21.84,0,0,0,4.63,11.78,3.44,3.44,0,0,1,.28.76c.08,3.18-.19,3.41-3.15,2.29-3.37-1.27-6.64-2.12-9.67.82a1.71,1.71,0,0,1-2.73-.31,3.58,3.58,0,0,0-3.17-1.42,3.49,3.49,0,0,1-2.88-1c-1.33-1.71-3.1-1.66-4.93-1.61A8.33,8.33,0,0,0,99.13,50C98.21,50.57,97.22,51.33,96,50.88Z"/><path class="cls-2" d="M84.44,264.54a1,1,0,0,0-.47-1,38.83,38.83,0,0,0-4.78-8.12l-1-.63c-2.86-5.28-7.64-8.84-11.68-13.08-2.32-1.52-4.49-3.23-6.69-4.92l0,0a18.57,18.57,0,0,1-2.64-2.11l0,0c-1.68-1.77-4-2.79-5.52-4.75-.35-.45-1.13-.83-.7-1.5s1.21-.29,1.88-.09c3.51,1,5.76,3.85,8.39,6.06,6.66,5.59,13.63,10.77,20.57,16a11,11,0,0,1,2.46,2.32,10.48,10.48,0,0,0,2.51,2.92c.83-1.5.49-3.19.9-4.73.74-2.51,1.73-4.94,2.68-7.38a26.65,26.65,0,0,1,8.11-10.68,41.55,41.55,0,0,0,2.87-3.37c3.27-3.38,6.87-6.43,10-9.94A21.69,21.69,0,0,0,115,214.8a10.64,10.64,0,0,1,3.22-3.38c6.75-4.3,11.58-10.78,17.82-15.67.86-.53,1.42-1.46,2.44-1.76,1.31.12,2,.64,1.32,2-2.18,2.29-4.25,4.69-6.4,7-3.62,4.34-6.33,9.33-9.73,13.84-1.47,2-3.2,3.65-4.79,5.45-2,2.29-3.72,4.79-5.64,7.14l0,0c-3.28,5.09-7.5,9.45-11,14.34a.74.74,0,0,1-.41.3,26.44,26.44,0,0,0-3.24,4.23l0,0c-2.09,3.2-4.68,6-6.84,9.16l-1.53,1.64c-1.11,1.65-2.62,3-3.74,4.61C86.08,264.32,85.54,265.36,84.44,264.54Z"/><path class="cls-3" d="M69.72,131.93c.91,1.17.34,2.34-.08,3.46-.92,2.46-1.75,4.94-1.4,7.62.08.58.25,1.37.65,1.63.64.41,1-.44,1.41-.82,1.34-1.23,2.44-2.75,4.24-3.42a5.9,5.9,0,0,1,4.83-.12c2.41,1,5.41.32,8-1,2.86-1.5,5.73-2.93,9.06-3.11,3.86-.2,7.69-.82,11.54.28,3.19.91,3.4.11,4.52-2.88s1.26-6.37,2-9.51c1.19-5.35,2.13-10.76,3.4-16.11,1.17-4.94,3.11-9.58,4.73-14.35.17-.49.58-1,.56-1.45-.08-1.78,2.45-3.46,1.17-4.66-.93-.88-3,1-4.71,1.35a14.35,14.35,0,0,1-4.18.38c-3.11-.13-6.27-.52-9.36.3a4.13,4.13,0,0,1-2.54-.29c-4.17-1.53-8-1.36-11.34,2.09-1.5,1.57-4.6.82-6.23-1.6A11.17,11.17,0,0,1,84.8,79c.12-.33.32-.62.44-1,1.14-3.32,1-3.82-2.19-5-.9-.35-1.28-.79-1.22-1.69a12.48,12.48,0,0,1,5.46.09,1.44,1.44,0,0,1,.63.55A5.11,5.11,0,0,1,87.76,76,39.84,39.84,0,0,0,86,82.84c-.51,2.35.78,4.61,2.26,6.38a2.51,2.51,0,0,0,3.78,0c3.2-3.24,6.83-3.38,10.82-1.77a8.18,8.18,0,0,0,4.19.89,14.65,14.65,0,0,1-7-2.16c.14-1.47,1.24-1.23,2.16-1.13a24.55,24.55,0,0,1,3.84.74c4.4,1.2,8.68.36,12.95-.67a12.13,12.13,0,0,0,4-1.86,18.31,18.31,0,0,1,6.69-2.83A14.38,14.38,0,0,0,135,77.94c3.37-2.42,3-5.88-.7-7.56-.92-.42-2.07-.67-1.92-2.08a1,1,0,0,0,.23-.44c-3.39,0-6.79-.39-10.16.31a90.32,90.32,0,0,0-9.07.88c-.6.09-1.33.19-1.65-.43-.41-.8.32-1.25.84-1.68,2.58-2.14,5.85-2.55,8.89-3.53,3.54-.22,7-1.24,10.43-1.83a4.16,4.16,0,0,1,3.63.78,2.22,2.22,0,0,1,.51.61,23.52,23.52,0,0,0,2.06,4.38,5.65,5.65,0,0,1,.3.7c1.08,2.92,2.33,5.82,1.23,9a7.17,7.17,0,0,1-3,2.66c-2.29,1.43-4.55,2.85-7.4,2.94-1.8.05-3.23,1.18-4.68,2.13-3.66,2.38-7.53,4-12,3.43,4.77.59,8.79-1.23,12.65-3.75.77-.51,1.71-1.76,2.7-.88s.17,2-.29,2.9A127.19,127.19,0,0,0,121.85,101a92,92,0,0,0-4.05,15.09c-1.15,6.41-2.48,12.79-3.32,19.25a2.84,2.84,0,0,1-1.81,2.87,16.15,16.15,0,0,1-7.49-.37,16.55,16.55,0,0,0-8,.05,43.43,43.43,0,0,0-9.09,3.19,13,13,0,0,1-9.4.79,5.25,5.25,0,0,0-5.46,1.63,32.49,32.49,0,0,0-4.66,5.61,1.5,1.5,0,0,1-1.17.54c-1.7-.42-1.33-1.84-1.47-3,0-2,0-3.93,0-5.9.55-2.65,1.74-5.08,2.55-7.65C68.68,132.55,69,132,69.72,131.93Z"/><path class="cls-4" d="M35.56,158.27c-3.38-2.23-6.35-5-10.2-6.6a8.09,8.09,0,0,1-4-3.59c-2.35-4.33-4.58-8.72-6.88-13.08-3.19-6.05-1.39-11.88.43-17.88,1.19-3.92,4.07-6.8,5.45-10.53.38-1,1.39-1,2.21-.47.51.3.87.87,1.59.65.55,1.72-1.36,1.06-1.78,1.84a15.24,15.24,0,0,0-4.47,5.91,65.64,65.64,0,0,0-3.57,10.92,11.38,11.38,0,0,0,.51,5.65A39.28,39.28,0,0,0,19.48,141a41.42,41.42,0,0,1,2.74,5.05,6.54,6.54,0,0,0,2.8,3.36,114.77,114.77,0,0,1,10.55,6.82,32.44,32.44,0,0,0-.84-10c-1.19-4.75-.86-9.55-.56-14.31a94.19,94.19,0,0,1,1.39-10.36c.15-.84-.13-2.05,1.32-2.14a3.06,3.06,0,0,1,.78,2c-.41,6.6-1.77,13.14-1.21,19.81a10.26,10.26,0,0,0,.43,3.31c1.33,3.66,1.31,7.47,1.19,11.28a3.82,3.82,0,0,1-.66,2.46A1.58,1.58,0,0,1,35.56,158.27Z"/><path class="cls-4" d="M118.51,211.69c-3,1.83-4.09,5.29-6.34,7.8-4.12,4.58-8.79,8.59-13,13.09-4.67,5-8.37,10.3-10.28,16.84a15.12,15.12,0,0,1-.7,1.65,2.44,2.44,0,0,1-.57-2.56,218.81,218.81,0,0,0,5-21.31c.64-3.6,1.76-7.1,2.49-10.69a2.72,2.72,0,0,1,1.1-1.73,1,1,0,0,1,.8-.07c.95,2.36,0,4.65-.57,6.82C95,226.68,94.39,232,92.92,237c2.14-1.43,2.38-3.78,2.83-6.11.65-3.38,1-6.87,2.94-9.87.9-.15.54.73.86,1.06l-2.7,10.53,11.79-11a26.46,26.46,0,0,0,6.12-7.22,11.36,11.36,0,0,1,3.16-3.34C118.45,211,118.62,211.18,118.51,211.69Z"/><path class="cls-4" d="M83.92,253c-9.36-8.69-29.6-23.88-32.78-24.48a15.47,15.47,0,0,0,4.31,4.11c.74.53,1.82.81,1.77,2-1.66-.29-2.76-1.53-3.78-2.61-4.77-5-10.72-7.84-17.3-9.54a2.46,2.46,0,0,1-.7-.34,2,2,0,0,1-.35-.41c1.1-.61,2.11.08,3,.41,5.44,2,11.07,3.63,16.28,6.28,3.47,1.76,6.05,4.64,9,7,6,4.76,11.9,9.52,18.28,14.18.79-3.35-1.56-5.88-1.8-8.8.27-.35,0-1.15.84-1,1.38,1.26,1.65,3.07,2,4.72.55,2.56,1.43,5,2,7.58A.91.91,0,0,1,83.92,253Z"/><path class="cls-4" d="M69.72,131.93l-3.11,8.52a.51.51,0,0,1-.71-.12c-.79-1.52-.12-2.89.46-4.25,1.82-4.27,1.78-8.29-1.42-12-2.13-2.45-2.14-5.61-2-8.47.27-5.57-2.86-8.52-7.17-10.8a12.13,12.13,0,0,1-4.12-3.12c-2.73-3.46-3.46-3.61-7.4-1.88-.45-.08-.77-.26-.67-.79,1.72-2.54,5.44-3.25,7.26-.73,2.59,3.59,6.47,5.15,9.77,7.61a9.47,9.47,0,0,1,3.93,7c.22,2.25.42,4.5.52,6.76a5.5,5.5,0,0,0,1.33,3.34A15.52,15.52,0,0,1,69.72,131.93Z"/><path class="cls-4" d="M38.85,204.82c-3.52.75-7.07,1.45-10.57,2.25C22,208.5,16,210.66,12.68,216.89c-1.28.15-.5-1-.88-1.41-.84.85-.32,2.21-1.15,3-2.06-1.3-1.23-3.72-2.12-5.49a4.84,4.84,0,0,1-.13-1.77c-.22-.5,0-.69.49-.77,1,.69.88,2,1.56,2.75,4.27-1.93,6.67-6.1,10.65-8.31,1-.55,1.88-1.31,3.13-1a1.45,1.45,0,0,1,.61.41c-.42,2.45-3.11,2.12-4.09,3.46,5.15-2.31,10.95-3.16,16.74-4.08C38.1,203.88,38.9,203.83,38.85,204.82Z"/><path class="cls-4" d="M170.28,175.48c-6.9,3.6-13.81,7.18-20,12a8.51,8.51,0,0,1-4.1,1.71c-.92.07-1.54,1.24-2.6.57a19.11,19.11,0,0,1,6.82-5.41c4.69-2.55,9.4-5.07,14.1-7.61A12.38,12.38,0,0,1,169.3,175C169.88,174.64,170.31,174.58,170.28,175.48Z"/><path class="cls-4" d="M67,209.92c-2.63-3-3.34-8.3-4.47-11.88-.87-2.78-.72-2.82-3.28-1.29a3.42,3.42,0,0,1-1,.24l-.11-.34c.21-1.24,1.34-1.77,2.13-2.71a1.93,1.93,0,0,1-1.55.25.86.86,0,0,1-.61-.81c.94-1.63,2.82-2.15,4-3.47a21.12,21.12,0,0,0,2.74-3.37c1-.38,2-.46,2.5.76,0,2.1-1.43,3.51-2.61,5a4.33,4.33,0,0,0-.86,4.1q1.09,4.46,2.55,8.79c.33,1,.84,1.95.42,3C66.81,208.33,67.07,209.82,67,209.92Z"/><path class="cls-4" d="M112.54,230.88c1.3-3.73,4.95-7.69,7.51-10.42a75.77,75.77,0,0,0,8.19-11,48.54,48.54,0,0,1,4.91-6.68c.5-.12.72.06.62.58-3.32,4.67-6.53,9.41-10,14-2.41,3.17-5.1,6.14-7.79,9.07C115,227.4,118.85,222,112.54,230.88Z"/><path class="cls-4" d="M147.59,187.72c2.51-.48-5,5.92-7.61,8.76a.65.65,0,0,1-.57-.59c.66-1.16,1.44-.89.44.11,1-2,1.74-4.43,3.34-5.84C143.33,190,147.46,187.87,147.59,187.72Z"/><path class="cls-4" d="M35.56,158.27l1.82-.07c1.25.23,1.2,1.35,1.41,2.21a29.08,29.08,0,0,1,.85,5.62,11.89,11.89,0,0,0,2.65,6.36,2.27,2.27,0,0,1,.42,1.57,1.57,1.57,0,0,1-1.67.89c-.88-.19-1.12-1-1.56-1.61-.77-1.49-2.38-2.49-2.55-4.33,0-.89,1.79-1,1-2.29C37.46,163.74,37.7,160.67,35.56,158.27Z"/><path class="cls-4" d="M80.38,239.86l-.55,1.06c-1-2.78-1.16-5.76-1.89-8.61a38.26,38.26,0,0,0-5.62-12.19c.11-.09-.55-.33-.44-.43,1.39-.22,2.73,1,3.43,1.85,3,3.64,3.74,8.13,4.49,12.54C80.11,236,81.45,237.82,80.38,239.86Z"/><path class="cls-4" d="M11.66,171.87c2.52-3.5,6.18-5,10.24-5.28s8,0,12,0c.51,0,1.05,0,1.37.54l-.29.31c-3.25,1.39-6.69,1-10,.85-3.91-.23-7.42.43-10.49,3a2.84,2.84,0,0,1-2.38.83Z"/><path class="cls-4" d="M118.51,211.69l-.59-.6c6.76-4.3,11.48-10.92,17.87-15.64a.62.62,0,0,1,.55.53C130.22,201,125.26,207.37,118.51,211.69Z"/><path class="cls-4" d="M96,50.88c1.75-.88,3.53-1.71,5.23-2.66,1.48-.83,2.83.22,4.24.11.94.75,2.48-.64,3.2.91-1.07,1.1-2.44.83-3.66.58a7.55,7.55,0,0,0-5,.82c-4.74,2.27-9.61,4.27-13.67,7.74a.88.88,0,0,1-.87-.7c2.47-2.77,5.08-5.31,9-5.91A5.05,5.05,0,0,0,96,50.88Z"/><path class="cls-4" d="M85.46,57.66l.68.68c1.72,4.2-.47,7.64-2.43,11.11,1.44.87,3.71,0,3.9,2.38-1.92-.21-3.93.48-5.79-.51A5.17,5.17,0,0,1,82.93,67a8.69,8.69,0,0,0,2-6.91A2.48,2.48,0,0,1,85.46,57.66Z"/><path class="cls-4" d="M38.85,204.82c-.42-.59-1.1-.44-1.68-.6.19-.87.94-.95,1.61-1.08,2.64-.53,5.19-1.45,7.88-1.8a15.4,15.4,0,0,0,6.71-2.71c1.41-1,2.81-2.49,4.9-1.62l0,0c-4.13,3.83-9.18,5.69-14.58,6.8C42.06,204.12,40.46,204.48,38.85,204.82Z"/><path class="cls-4" d="M8.94,210.64l-.53.62c-1-1.15-.86-2.55-1-3.94-.26-3-1.12-5.79-4.08-7.35a3,3,0,0,1-1.6-3.49c.3-.52.62-1,1.26-.39a11.62,11.62,0,0,0,2.29,3.09c3,2.86,4,6.58,4.13,10.58A1,1,0,0,1,8.94,210.64Z"/><path class="cls-4" d="M22.58,108.57c-.2-1.2,1.74-.59,1.53-1.8.16-2.34.32-4.69,1.91-6.61a3.42,3.42,0,0,1,3.38-1.52c1,.6,2.51-.55,3.33.87-.4,1-1.26,1-2.15,1.06-2.89.18-3.73.9-4.41,3.74-.3,1.26-.25,2.63-1,3.75S23.81,110.23,22.58,108.57Z"/><path class="cls-4" d="M2.75,185a44.78,44.78,0,0,0,.52-5.43A5.76,5.76,0,0,1,6.06,175c1.75-1.25,3.41-2.67,5.6-3.15l0,0c.71,1.15-.3,1.53-.95,2-1,.71-2,1.37-3,2a5.32,5.32,0,0,0-2.69,5c0,1.54.18,3.18-1.44,4.18A.8.8,0,0,1,2.75,185Z"/><path class="cls-4" d="M100.51,245.54c.77-2.82,4.86-6.26,6.48-8.47,1.93-2.65,4.17-5.08,6.27-7.6-1.31,3.81-4.28,6.47-6.66,9.53C105.27,240.7,102,243.94,100.51,245.54Z"/><path class="cls-4" d="M32.56,99.55c-.83-1.09-2.32.11-3.16-.92,1.78-.16,3.62.09,5.19-1.23,1.11-.94,2.07,0,3,.65,1.83,1.26,3.75,2.12,6,1l.62.64c-.13,1.46-1.24,1.5-2.29,1.53a6.28,6.28,0,0,1-3.3-.61A7.88,7.88,0,0,0,32.56,99.55Z"/><path class="cls-4" d="M66.65,241.47a80.34,80.34,0,0,1,10.44,10.74c.59.76,2.09,2.56,2.09,3.57-3.44-4.58-8.61-9.5-12.63-13.54A.55.55,0,0,1,66.65,241.47Z"/><path class="cls-4" d="M2.75,185l.46,0c0,.08.13.19.11.23-2,2.86-1.19,5.76-.19,8.7A1.76,1.76,0,0,1,2.67,196l-.92.51a12.43,12.43,0,0,0-.89-5C-.65,188.21-.26,187.23,2.75,185Z"/><path class="cls-4" d="M89.76,260.48c-.07-1.81,3.51-5.63,4.4-6.82,1.38-1.85,2.51-3.94,4.43-5.34C97.2,252,92.48,257.75,89.76,260.48Z"/><path class="cls-4" d="M139.41,195.89l.57.59-6.21,6.85-.62-.58C135.29,200.52,137,197.91,139.41,195.89Z"/><path class="cls-4" d="M79.19,255.42c2.75,2,4.79,6.27,5.48,9.51A44.6,44.6,0,0,1,79.19,255.42Z"/><path class="cls-4" d="M84.44,264.54c2.15-.25,2.34-2.53,3.72-3.61.71-.55,1.08-1.54,2.07-1.81-.89,2.66-3.12,4.39-4.77,6.48C84.56,266.73,84.51,265.21,84.44,264.54Z"/><path class="cls-4" d="M136.33,196l-.55-.53c2.36-1.92,5.94-5.48,8.81-6.69a25,25,0,0,1-6.19,5.63Z"/><path class="cls-4" d="M66.65,241.47l-.1.78c-2.44-1.58-5-3-6.74-5.45A25.62,25.62,0,0,1,66.65,241.47Z"/><path class="cls-4" d="M10.65,218.52c-.05-1.88-.3-3.85,2.09-4.64.95,1.09-1.27,2-.07,3A2.38,2.38,0,0,1,10.65,218.52Z"/><path class="cls-4" d="M170.28,175.48c-.2-.42-.6-.44-1-.48a19.31,19.31,0,0,1,7.68-2.54Z"/><path class="cls-4" d="M70.23,216.95c-2.16-2.4-3-5.34-3.59-8.43h0a.85.85,0,0,1,1.07.48c1.22,2.44,2.5,4.87,2.8,7.65Z"/><path class="cls-5" d="M97.88,249c.28-2,2.44-3.84,3.94-4.93A13,13,0,0,1,97.88,249Z"/><path class="cls-4" d="M37.9,166.62c1.11,1.14.28,1.68-.67,2.19-1.16,0-2.06-.23-2-1.66v0C36,166.62,37.36,168.64,37.9,166.62Z"/><path class="cls-4" d="M56.5,234c1.4.05,3.38,2.53,4,3.51C59.31,237.24,56.65,235.62,56.5,234Z"/><path class="cls-4" d="M72.32,220.12a4,4,0,0,1-2.08-3.17l.11-.09c1.83.27,2.49,1.35,2.13,3.12Z"/><path class="cls-2" d="M148.84,94.51c-.33.4-1,.49-1,1.2-2.28,3.44-4.13,7.14-7.15,10.13-2.17,2.15-3.2,5.32-5.75,7.26a19.27,19.27,0,0,1-1.88,1.39c-1.21.71-2,.26-2.44-.92-.36-1.43-1-2.87,0-4.28,2.12-2,2.86-4.75,3.3-7.48a60.58,60.58,0,0,1,3.78-12.64,4.32,4.32,0,0,1,.3-.68c.88-1.26,1.62-2.61,2.41-3.93a6.2,6.2,0,0,0,.54-2.08,6.42,6.42,0,0,1,.73-1.86A55.64,55.64,0,0,0,145.15,53a11.46,11.46,0,0,1,.13-4.67,70.69,70.69,0,0,0,2.22-9.63,6.65,6.65,0,0,1,2.15-4,2.17,2.17,0,0,1,2.27-.63c1.18,1,.54,2.6,1.11,3.82a8.17,8.17,0,0,1,0,3.22c-.74,2.38.06,4.44,1.33,6.4a4.09,4.09,0,0,1,.36.74c1.86,5.55,3.36,11.16,3.23,17.09a8.38,8.38,0,0,1,0,.85c-.24,5.59-2,10.84-3.61,16.13A65,65,0,0,1,148.84,94.51Z"/><path class="cls-2" d="M132.08,128.56l-.48,1.27c-2.46,5.47-4.45,11.16-7.61,16.3a1,1,0,0,1-1,.37,1.66,1.66,0,0,1-.66-.37c-1.37-1.62-2.93-3.11-3.6-5.24-.31-1-1.27-1.35-2.14-1.73a3.37,3.37,0,0,1-2.16-2.05,4.9,4.9,0,0,1-.08-.82c.15-5.24,1.49-10.29,2.34-15.42A133.53,133.53,0,0,1,123.71,95c1.46-3.83,3.37-7.45,4.8-11.28.34-.91,1-1.51,2-1.19s.53,1.24.49,2c-.21,4.09-1.3,8.07-1.4,12.16a4.83,4.83,0,0,1-.15.84,15.9,15.9,0,0,0,0,6.59,4.86,4.86,0,0,1,.17.82c-.12,1.78.55,3.49.44,5.27s.64,3.19.71,4.82c0,.59.45.63.93.45,1.1-.71,2-1.66,3.1-2.37.43-.28.86-.68,1.41-.4a1.35,1.35,0,0,1,.58,1.59c-.27,1.53-.64,3-1.06,4.53A71.8,71.8,0,0,1,132.08,128.56Z"/><path class="cls-2" d="M152.53,41.29V37.82c-.3-.66.1-1.31,0-2,.47-3.21.32-6.51,1.45-9.62a4.1,4.1,0,0,1,.33-.7c.29-.6,1-1,.87-1.81-.63-.56-1.17-.05-1.65.21-1.42.76-2.54,1-3.34-.88-.65-1.53-1.22-.6-1.7.25-1.08,1.91-1.36,4.13-2.41,6.05-3.43,6.31-5.36,13.2-7.74,19.92a56.22,56.22,0,0,0-2.2,5.86c-.32,1.35-.83,2.63-.44,4.08.2.74.22,1.77-.63,2.07s-1.53-.57-2-1.31c-.66-1.07-.6-2.35-1-3.5-.82-2.17.19-4.49-.54-6.67l0,.05a37.09,37.09,0,0,1-4.41-10.64,6.52,6.52,0,0,1,.11-4.52c1.83-1,2.59.33,2.65,1.61.21,4.44,2.33,8.16,4.14,12a6.45,6.45,0,0,1-.12,3.1c.34-.36.21-.78.33-1.13,2-5.39,3.57-10.94,5.67-16.29,1.72-4.37,4-8.48,6-12.72,1.35-2.86,3-3.22,5.69-1.72a5.89,5.89,0,0,0,2.74.7c3.42.15,5,2.29,3.62,5.43-2.38,5.56-2.49,11.4-2.09,17.21.28,4,2.84,7.57,3.61,12.09a56.13,56.13,0,0,0,1.93-8.4A36.66,36.66,0,0,1,165,35.38a5.8,5.8,0,0,0-.18-6c-2.84-4.55-2.92-9.75-3.53-14.81-.19-1.6.5-3.76-1.24-4.51s-2.6,1.33-3.82,2.2c-.84.61-1.48,1.48-2.31,2.12-1.79,1-2.9,2.75-4.57,3.87-3.16,1.24-4.93.45-6-2.72-.11-.33-.15-.68-.24-1-1-3.78-1-3.79-4-1.49a4.64,4.64,0,0,1-2.58,1.16c-2.1.06-3,1.36-3.68,3.12a36.12,36.12,0,0,0-2.38,8.51,6.47,6.47,0,0,1-1.61,4c-1.35,1.36-.13,3.51-1.57,4.81-1.3-2-.7-4.27-.38-6.37a54.12,54.12,0,0,1,5.22-17,1.9,1.9,0,0,1,3-.9c1.42.8,2.12.37,3-.86,1.21-1.8,3.34-2,5.26-2.5.91-.21,1.29.68,1.62,1.42a29.14,29.14,0,0,1,1.27,4.76c.25.95.39,2,1.5,2.2a2.46,2.46,0,0,0,2.43-1.24A42,42,0,0,1,158.73,6c.82-.63,1.62-1.51,2.64-.29.72,1.16,1.15,2.51,2.43,3.29,1,.58.76,1.67.77,2.61a80.88,80.88,0,0,0,.28,9.34A13.94,13.94,0,0,0,167,27.24c2.15,3.12,2.6,6.32.71,9.72l-.56,1.47c-2.07,3.31-2.77,7.09-3.29,10.83-.64,4.57-1.3,9.07-3.45,13.22-.4.77-.66,1.64-1.71,1.76a.94.94,0,0,1-.69-.43c-.68-5.34-1.44-10.65-3.63-15.64a2.26,2.26,0,0,0-.28-.43v0A12.52,12.52,0,0,1,152.53,41.29Z"/><path class="cls-4" d="M127.35,34.66c-.33,4.66,1.32,8.78,3.52,12.74a4.76,4.76,0,0,1,.73,2.45c-3.62-3.9-4.87-8.79-5.26-13.85a47.07,47.07,0,0,1,3.54-21.15c.57-1.42,1.61-2.55,1.9-4.21.27-1.49,1.93-1.4,3.26-.72.67.34,1.48,1,2-.05,1.1-2.17,3.35-2.31,5.21-3.13,1.65-.73,2.67-.12,3.14,1.58s1,3.33,1.39,5,1.81,2,2.6.82c3-4.54,8.26-6.88,10.8-11.79,1.22.42.66,1.72,1.26,2.4.26.54.5,1.06-.48,1-1-.9-1.4.34-1.86.7-3.17,2.51-6.43,4.95-8.92,8.21-.75,1-1.7,1.94-3.06,1.55s-1.13-1.8-1.46-2.82c-.26-.82-.24-1.74-.55-2.53-.47-1.22-.27-3.29-1.9-3.32a5.3,5.3,0,0,0-4.56,2.1c-1,1.53-1.79,2.75-3.79,1.05-.77-.65-1.73-.24-2.38,1a59.52,59.52,0,0,0-5.27,16.77,12.68,12.68,0,0,0,.15,6.14Z"/><path class="cls-4" d="M128.95,158.27c-1.11-1.23-2.58-1.17-4-1.07a10.76,10.76,0,0,1-3.28-.51c-.56-.39-1.21.1-1.78-.17-5-.8-8.48,2.18-11.63,5.28a127.79,127.79,0,0,0-9.53,10c-5,6.1-11.51,9.93-19,12.27a2.36,2.36,0,0,1-1.53.1,1.29,1.29,0,0,1-.72-.89c.56-1.53,2-1.85,3.29-2.31A39.86,39.86,0,0,0,97.34,170a105.88,105.88,0,0,1,12.42-12.29c5.32-4.23,11.14-4.83,17.45-3.43a11.5,11.5,0,0,0,2.81.55c.85.15.91,1,1.27,1.54.51.77,2.25,1.13,1.27,2.41-.83,1.09-1.89-.15-2.86-.31C129.45,158.41,129.21,158.29,128.95,158.27Z"/><path class="cls-4" d="M186.11,94.75c3.31,3.55,7.32,6.38,10.36,10.21,2,2.5,4.38,4.62,5.76,7.65.31.68,1.21,1,.64,2-.32.55-1,.81-1.12.08-1.37-6-7.15-7.73-11.08-11.18-3.2-2.81-6.09-5.94-9.53-8.51-5.22-3.9-11.12-6.37-17.06-8.84-.77-.32-1.77-.29-2.12-1.3l.27-.26a2.91,2.91,0,0,1,2.51.19c7.62,3,15,6.49,21.12,12.15,2.59,2.41,4.93,5.1,7.66,7a41.26,41.26,0,0,1-7-6.51,2.54,2.54,0,0,1-.85-2.08A1.16,1.16,0,0,1,186.11,94.75Z"/><path class="cls-4" d="M120.06,156.15c.58,0,1.2-.08,1.57.53a3.47,3.47,0,0,0-1.57,1.67c-2.69,6.94-5.19,14-7.23,21.11-3,10.33-6.42,20.5-9.4,30.81-1.16,4-2.41,7.94-3.88,11.83L99,221c-.71-.92-.3-1.87.06-2.72,2.76-6.54,3.91-13.56,6.12-20.26,3.45-10.43,6.82-20.88,9.9-31.42a48.32,48.32,0,0,1,2.33-5.26c.35-.83.74-1.68-.54-2.1a1.71,1.71,0,0,1-.62-.45A3.87,3.87,0,0,1,120.06,156.15Z"/><path class="cls-4" d="M148.84,94.51c1.59-4.58,3.83-8.9,5.49-13.47a57.66,57.66,0,0,0,3-15c1.25.17,1,1.33,1.37,2.09,0,1.49.77,2,2.16,2.36,3.79.9,7.63,1.65,11.45,2.39,5.5,1.06,9.87,4,14,7.57-1.42-2.21-3.51-3.83-4.57-6.21l.14-.35c3,1.34,4.44,4.14,6.15,6.67a18.94,18.94,0,0,1,1.14,2.28,1,1,0,0,1-1.65.52c-3.7-2.85-7.07-6.2-11.67-7.68a39.73,39.73,0,0,0-4.94-1.6c-3.16-.58-6.28-1.31-9.4-2.08s-4.12-.08-4.69,3a58.52,58.52,0,0,1-2.64,9c-.33.92-1,2.14,1,2l0,0C152.55,88.44,151,91.68,148.84,94.51Z"/><path class="cls-4" d="M132.08,128.56c.27-2.64,1.72-4.88,2.56-7.33a43.74,43.74,0,0,0,1.71-8.2c-2.21.46-3.13,2.33-4.65,3.38-1.34-.69-1.46-1.62-.54-2.76.49,1,1.09.74,1.8.21a17.21,17.21,0,0,0,4.68-4.47c2.49-4.07,6.21-7.23,8.37-11.52a4.72,4.72,0,0,1,1.83-2.16c-1,3.5-3.12,6.31-5.43,9a20.8,20.8,0,0,0-5.29,10.39C136.27,119.72,135,124.54,132.08,128.56Z"/><path class="cls-4" d="M169.28,61.25c2-1.27,3.53-1,5.27.71a7.55,7.55,0,0,0,7.84,2.2c2.78-.8,4.76,1.21,6.46,3a10.3,10.3,0,0,1,1.92,3.68c1.11,3.26,5.53,9.78,6.71,13-2.7-1.79-6-7.83-7-10.41s-1.72-5.09-3.75-7c-1.23-1.18-2.76-2-4.25-1.39-2.47.95-4.54-.2-6.76-.65A2.73,2.73,0,0,1,174,63c-1.17-2.1-2.82-2-4.69-1.24q-.25-.18-.16-.36T169.28,61.25Z"/><path class="cls-4" d="M131.57,49.8c1,2.14.73,4.49,1.14,6.73.21.57.31,1.1-.5,1.28a2.52,2.52,0,0,1-1.12-1.37c-2.22-4.28-6.62-5.53-10.69-2.83-2,1.35-3.71,2.35-5.42-.36-.56-.88-1.79-.48-2.65-.82-1.57-.62-3.8-.5-3.83-3.07-.72-1.23-2.26,0-3.05-1,2.08-.25,4.1-.51,5.44,1.77.49.83,1.67.89,2.63.83,1.57-.09,2.93.05,3.61,1.79a.83.83,0,0,0,1.48.27c3.81-3.95,7.84-2.32,11.9-.55a6.94,6.94,0,0,0,1.06.23Z"/><path class="cls-4" d="M161,5.78l.47-1c1.09,1.31,1,3.59,3.46,3.81.93.08.34,1,.34,1.5-.07,4.67-.75,9.35.86,13.95a26.81,26.81,0,0,0,2.08,4.47c1.69,3,1.65,5.76-.48,8.47,1.7-4.23.25-7.82-2.09-11.37C164,23.1,164.15,20,164.2,17.23,164.27,13,163.81,9.11,161,5.78Z"/><path class="cls-4" d="M158.32,63.92c2.88-2.45,3.4-5.94,4.16-9.35,1.13-5.1,1.55-10.37,3.59-15.26.23-.54.44-.92,1.07-.89a64.94,64.94,0,0,0-3.65,16.68c-.34,3.56-2.25,6.65-3.59,9.89C159,65.22,158.24,65.17,158.32,63.92Z"/><path class="cls-6" d="M195.78,81.87c2.5,2.35,7,7,7.05,10.43.11,5.29,0,10.59.1,15.88,0,.76.25,5.7.15,6.5-1.22-2.6-1-9.66-1.26-12.4-.18-1.86.39-3.79.45-5.69C202.39,92.06,199.67,85.61,195.78,81.87Z"/><path class="cls-4" d="M162,84.91c-2.39-.42-4.6.37-6.83,1l0,0c2.93-3.29,6.89-3.21,10.57-2.49,3.94.78,7.55,2.79,11,5l-.21.31c-1.71.63-3-.45-4.4-1.09-2.83-1.34-5.61-2.78-8.8-3.09-.51-.05-1-.32-1.33.34Z"/><path class="cls-4" d="M158.32,63.92A2.7,2.7,0,0,0,159.9,65c3.31-.79,5.92-3.34,9.38-3.75v.53c-2.11,1.54-5,1.7-6.8,3.75a1.58,1.58,0,0,1-1.05,1,4,4,0,0,0-3.19,1.6l-.91-2.07,0-.52c.59-.38-.35-1.74,1-1.61Z"/><path class="cls-4" d="M123.66,146.12c2.47-4.47,4.45-9.17,6.49-13.85a22.17,22.17,0,0,1,1.45-2.44,70.35,70.35,0,0,1-7.22,16.37A.44.44,0,0,1,123.66,146.12Z"/><path class="cls-4" d="M161.36,66.15l1.11-.61a26,26,0,0,0,8.59,2.59,5.79,5.79,0,0,1,4,1.61l-.32.29c-3.65.49-6.92-1-10.29-2C163.26,67.74,161.75,67.79,161.36,66.15Z"/><path class="cls-4" d="M186.11,94.75l-.07.69c-3.56-1.71-7.33-3.14-9.48-6.81l.15-.17A29.54,29.54,0,0,1,186.11,94.75Z"/><path class="cls-4" d="M187.52,83.36l1.65-.52a31.25,31.25,0,0,1,3.1,7.89C190.69,88.25,189.25,85.71,187.52,83.36Z"/><path class="cls-4" d="M128.95,158.27c1.17-.78,2.18.89,3.56.14-.87-1.1-2.56-1.62-2.42-3.32a.46.46,0,0,1-.16-.41q0-.22.09-.22a.55.55,0,0,1,.66,0c.54.56,1.06,1.14,1.62,1.68.9.88,1.38,2,.65,3-.9,1.31-2,.3-3-.13A4.92,4.92,0,0,1,128.95,158.27Z"/><path class="cls-4" d="M173.64,69a14.7,14.7,0,0,1,8.24,4.85l0,0c-3-.19-5.14-1.83-6.79-4.22Z"/><path class="cls-4" d="M130.68,154.49l-.7.09c-1.78-.74-1-2.63-1.73-3.83a.85.85,0,0,1,.69-.82C130.6,151,129.67,153.13,130.68,154.49Z"/><path class="cls-4" d="M123.66,146.12l.72.09c-.22,1.25,1.25,1.58,1.43,2.61l-.31.22a2.86,2.86,0,0,1-2.85-2.85Z"/><path class="cls-4" d="M128.94,149.93l-.56.49c-1.48.45-2.43.08-2.56-1.61h0A5.23,5.23,0,0,1,128.94,149.93Z"/><path class="cls-4" d="M83.92,253l.48-.51c2.17,1,2.68.69,2.41-1.74a50.64,50.64,0,0,0-2.7-11.41c-1.32-3.69-2.48-7.43-3.6-11.19a3.66,3.66,0,0,1-.13-1.81,2.59,2.59,0,0,1,1-1.74c1.09.28,1.06,1.27,1.26,2.07,1.36,5.21,3.26,10.25,5,15.35a12,12,0,0,1,.55,6.12q0,1.44,0,2.88l-.6,5.86C85.58,256.15,84.74,254.61,83.92,253Z"/><path class="cls-2" d="M108.5,49.36c1.11,2.19,3.21,2.35,5.27,2.59.81.09,1.81-.29,2.09,1,.61,2.8,2.11,1.64,3.4.68,2.16-1.6,4.26-2.57,7.17-1.8,3.24.86,5.16,2.57,5.73,5.84,1.58,3.58,1.29,4.18-2.49,4.64-2.57.31-5.07,1-7.6,1.4-5.64.49-10,3.55-14.33,6.87a24.57,24.57,0,0,0-3.67,2.93c3.64-4.32,8.86-4.54,13.84-5.27,2.14-.31,4.32-.42,6.49-.58,2.74.25,5.55-.58,8.24.52.1,1.12,1,1.34,1.83,1.55,1.86.47,3.58,1.16,3.71,3.4a5.73,5.73,0,0,1-2.95,5.64c-1.56.84-3,1.9-4.94,2.18a21.35,21.35,0,0,0-7.61,3.17c-2.78,1.63-5.71,3.23-9.2,2.39a1.21,1.21,0,0,0-.77,0c-3.68,2-7-.56-10.49-.85-.79-.07-1.53-.42-2.07.45a15.68,15.68,0,0,0-8.66,3.64c-1.56,1.2-3.49,0-4.39-1.75-2.13-4.15-.9-8,.54-11.95a4.58,4.58,0,0,0,0-4.23l0,0c-1.18-2.14-3.35-.9-5.33-1.4,2.51-3.78,4.53-7.54,3.86-12.1,2.9-4,7.66-5.11,11.62-7.47C101.23,48.79,104.8,49,108.5,49.36Z"/><path class="cls-2" d="M125.82,148.81c.47,1.15,1.5,1.4,2.56,1.61,1.47,1,.79,2.88,1.59,4.16l.11.51c-1.71,1.19-3.07-.49-4.64-.62-5.28-.44-10.26-.26-14.7,3.33-5.51,4.44-10,9.79-14.9,14.86a36.62,36.62,0,0,1-13.61,8.51,31.17,31.17,0,0,0-4.73,2.12c-.92,1.35-2.55,1.13-3.82,1.71a18.36,18.36,0,0,1-8.34,1c-1.13-.18-2-.45-2.23-1.7.42-3,1.58-5.79,2.37-8.68a14.67,14.67,0,0,1,1.74-3.53c3.54-4.37,7.45-8.3,12.88-10.32,6.58-4.71,13.19-9.22,21.42-10.89,3.48-.71,6.76-2,9.77-1.16,1,.05.59-.52.66-.18,0,.14,0,.21-.18.19-4-.45-8,.28-11.88.22-4.8-.08-9.15,2.24-13.88,1.65a4.77,4.77,0,0,0-2.25.6c-1,.37-2,1-3,.77-4-1.07-6.13,1.54-8.47,3.89a36.54,36.54,0,0,1-4.81,4.39c-1.5,1.05-2.35.77-2.89-.91A13.6,13.6,0,0,0,63.8,158a2.85,2.85,0,0,1-.25-2.73c1.27-2.05,2.14-4.42,4.2-5.91l.43-.34A57.46,57.46,0,0,1,73,143.54a5.34,5.34,0,0,1,5.6-1.76,13.85,13.85,0,0,0,9.83-1.1c3.3-1.62,6.88-2.35,10.37-3.33,3.83-.52,7.52.83,11.31.88a10.21,10.21,0,0,0,2.06,0c1-.18,1.8.44,2.73.5a4.63,4.63,0,0,1,4.59,3.46c.53,1.71,2.3,2.54,3.19,4l0,0A4.71,4.71,0,0,0,125.82,148.81Z"/><path class="cls-2" d="M151.46,34.26l-1,.2c-3.31,1.92-2.66,5.55-3.67,8.48-2,5.83-1.36,11.79-1,17.77.32,5.51-1,10.85-2.27,16.16-.2.8-.34,2.14-1.7,1.9-1.1-.2-1.38-1.3-1.49-2.24-.37-3.1-.55-6.24-2.48-8.91l0,0a30.55,30.55,0,0,0-2.13-4.34l0-.23c-1.19-5.11.5-9.74,2.38-14.33,2.27-5.54,3.68-11.4,6.44-16.76a8,8,0,0,0,1.22-2.57c.84-1.62,1.32-3.39,2.11-5,.9-1.88,1.4-2,2.5-.34s1.91.45,2.87.11c.57-.2,1.23-.53,1.7,0s-.13,1.09-.39,1.6l0,0c-1.25,2.3-1.06,5-2.17,7.37A5.12,5.12,0,0,1,151.46,34.26Z"/><path class="cls-2" d="M136.85,79l2.56-2c1.68,0,1.58,1.32,1.74,2.36a25.12,25.12,0,0,1-.21,4.4c-.65,1.69-1.79,3.13-2.55,4.77l0,0A59.49,59.49,0,0,0,133.9,103,10,10,0,0,1,131,109.2a1.12,1.12,0,0,1-.85-.07c-1.19-3.53-.7-7.18-.77-10.79-.09-4.09,1.18-8,1.36-12.1a5.89,5.89,0,0,1,3-4.88A20.38,20.38,0,0,0,136.85,79Z"/><path class="cls-4" d="M136.85,79c-.06.16-.08.4-.2.47-6.1,3.23-5.77,9.42-6.46,14.88-.57,4.44-.13,9-.09,13.52a3.42,3.42,0,0,0,.48,1.15c0,.71,0,1.47-1,1.56-.16-2-.92-3.85-.56-5.86-.08-2.59,0-5.19,0-7.78,0-4.68,1.19-9.21,1.56-14-1.44-.37-1.67,1-2.05,1.9-2.53,5.79-4.92,11.62-6.9,17.63-3.33,10.07-4.79,20.53-6.67,30.91a23.15,23.15,0,0,0-.13,3.38c-1.29.1-.38-1.2-1-1.54.77-4.88,1.38-9.78,2.35-14.62,1.41-7.06,2.77-14.12,5.37-20.91,1.89-4.94,3.77-9.87,6-14.66a1.26,1.26,0,0,0,.05-1.47c-5.09,3.35-10.36,6.37-16.82,4.8.26-.61.89-.31,1.37-.36A16.17,16.17,0,0,1,114,88,17.79,17.79,0,0,0,123,85.29c2.79-1.6,5.29-3.47,8.76-3.72C133.53,81.44,135.17,79.93,136.85,79Z"/><path class="cls-4" d="M67.75,149.32c-1.2,1.75-1.55,4-3.39,5.41-.8.63-.56,2,.05,2.89a3.58,3.58,0,0,1,.6,2.71.85.85,0,0,1-.74.05,4.43,4.43,0,0,1-1.77-2.78,58.28,58.28,0,0,0-9.85-18.19,32.32,32.32,0,0,1-6-10c-.12-.76-.77-1.06-1.27-1.5A16.75,16.75,0,0,1,43,123.26c-1,1.32-1.12,3.82-3.7,2.51-1-1.44-1-3.29-2.05-4.72-.61-.36-.48-1-.49-1.51.62-1.26,1.4-1,2.24-.24.57.82.53,1.95,1.4,2.8.71-.63.31-1.81,1.11-2.34a2.46,2.46,0,0,1,1.86-.23,1.75,1.75,0,0,1,1.16,1c3.76,8.37,8.9,15.89,14.3,23.26,1.6,2.18,2.43,4.81,3.49,7.29.23.53.24,1.39,1,1.4s1-.86,1.24-1.49a23.08,23.08,0,0,0,.58-2.55,4.49,4.49,0,0,1,.82-1.74.54.54,0,0,1,.69.06C66.91,147.65,65.93,149.07,67.75,149.32Z"/><path class="cls-4" d="M140.4,84.28c0-1.62.1-3.24.11-4.87,0-.94,0-1.93-1.1-2.35.5-3.32-.88-6.33-1.55-9.45,2.06,1.09,2.31,3.12,2.59,5.09a17.81,17.81,0,0,0,1.34,5.77c1.25-.31,1.47-1.42,1.65-2.21a60.64,60.64,0,0,0,1.68-9.43,47.78,47.78,0,0,0-.34-12.4,10.67,10.67,0,0,1,.37-5.92c1.38-3.58,1.21-7.49,2.47-11.13a4.11,4.11,0,0,1,2.86-2.93c-3.11,3-2.22,7.31-3.67,10.85-1.78,4.34-.59,8.77-.52,13.16.12,7.9-.9,15.58-4.11,22.88a1,1,0,0,1-.64-.72,1.36,1.36,0,0,0-.28-.65c-.09-.34-.48.22-.21,0,.11-.08.12,0,.22.14.64.85-.34,1.82.23,2.67a2.66,2.66,0,0,1-.5,2.13C140.49,85,140.19,84.87,140.4,84.28Z"/><path class="cls-4" d="M146.25,29.4c-3.55,7.6-6.3,15.5-9.11,23.39-1,2.73-1.82,5.43-1,8.37a1.64,1.64,0,0,1-.41,1.92c-2.68-2.11-5.4-.31-8.06,0-2,.26-4,.94-6.09.85q-.27-.18-.18-.36t.18-.18c2.25-.51,4.49-1.17,6.77-1.51,4.16-.62,4.17-.54,3.76-4.27l.55-1.11c.74,1.42.34,3.35,2.16,4.5.69-1.81-.41-3.64.35-5.43C139,46.77,141,37.27,145.69,28.83,146,28.87,146.08,29.19,146.25,29.4Z"/><path class="cls-4" d="M87.58,71.8c1.72.69,1.28,2.05.93,3.29A21.21,21.21,0,0,1,87.12,79c-1.7,3.33-.26,6.42.8,9.43.62,1.78,2.22,1.49,3.7.61,2.62-1.58,5.05-3.77,8.51-2.92a38.86,38.86,0,0,0,7.66,2.25c-2.63.73-4.73-.42-6.83-1a8.25,8.25,0,0,0-8.16,2c-2.73,2.38-4.8,1.31-6.51-1.82-2.14-3.92-.38-7.24.52-10.68A14.11,14.11,0,0,0,87.58,71.8Z"/><path class="cls-4" d="M121.64,63.42V64c-2.84,1.43-6.3,1.32-8.81,3.58-.3.27-.8.36-.74,1.06a54.56,54.56,0,0,1,10.52-1c.51-.15,1.11-.49,1.07.51-2.59.3-5.18.58-7.76.89a23.35,23.35,0,0,0-13.28,5.77C108,69.4,113.5,64.15,121.64,63.42Z"/><path class="cls-4" d="M98.72,137.94c-4.79.84-9.19,2.95-13.85,4.25a13.39,13.39,0,0,1-6.44.1c-2.14-.45-3.59.28-5.16,1.61-1.84,1.57-2.85,4-5.1,5.08a18.39,18.39,0,0,1,6.55-7.4c1.9-1.3,3.93-.57,5.78-.08,2.85.75,5.33-.17,7.74-1.23a40.19,40.19,0,0,1,8.31-2.88C97.22,137.83,98.2,137,98.72,137.94Z"/><path class="cls-4" d="M98.72,137.94c-.7-.24-1.57.15-2.16-.55a12.81,12.81,0,0,1,8.17-.32,28.75,28.75,0,0,0,8,.7.49.49,0,0,1-.06.71c-2.5.51-5-.1-7.44-.28A41.78,41.78,0,0,0,98.72,137.94Z"/><path class="cls-4" d="M123.67,68.08l-1.07-.51a29.18,29.18,0,0,1,11.78.09c-.58.73-1.23.33-1.75.5Z"/><path class="cls-4" d="M112.64,138.47l.06-.71a2.56,2.56,0,0,0,1.12-2.51l1,1.54a3,3,0,0,1,.06.46c.29.69.52,1.38-.07,2A1.85,1.85,0,0,1,112.64,138.47Z"/><path class="cls-4" d="M135.75,63.3c1.62,1,1.84,2.69,2.13,4.34C137,66.29,135.59,65.18,135.75,63.3Z"/><path class="cls-4" d="M66.67,146.73h-.58c-1.14-1.39-.54-3-.68-4.58a2.17,2.17,0,0,1,.75-1.7h.45Z"/><path class="cls-2" d="M66.16,140.46,66,141.94c-.55,2.09.12,4.25-.36,6.35-.24,1.7-.15,3.5-1.52,4.86-.71.71-1.3,1.36-1.77-.19-2-6.71-6.53-11.93-10.29-17.64-3.2-4.86-6.4-9.81-8.44-15.36-1.75-.09-2.55-1.08-2.83-2.75-.38-2.27-1.69-4.26-1.95-5.68.39,1.48,1.52,3.69,1.2,6.19-.17.76,0,1.78-1.24,1.79-.68-.38-1.36-.63-2,0-1.19,2.93-1.07,6.09-1.54,9.13a54.67,54.67,0,0,0,.82,21.24c.57,2.4.14,5,.86,8.19-2-1.43-3.29-2.51-4.73-3.38a77.66,77.66,0,0,0-6.85-4.21,8.17,8.17,0,0,1-4-4.61c-1.36-3.47-3.67-6.48-5.42-9.79a18,18,0,0,1-.83-16.27c1.4-3.3,1.82-7.1,4.85-9.68.8-.68.87-2.21,1.27-3.36,1.08.11.63,1.36,1.32,1.74,1.18.79,2,.42,2.27-.89.24-1,.32-2.06.48-3.09.54-3.59,2.06-4.79,5.74-4.63a5.09,5.09,0,0,0,1.49-.41c1.87-1.22,3.33-1.77,5.53.11,1.28,1.09,4.07,2.09,6.1,0,2.87-2.7,4.9-2.51,7.3.78a14,14,0,0,0,5.21,4.05c3.8,2,7,4.71,6.86,9.85-.14,4.07.36,7.95,3.26,11.43,2.47,3,1.74,6.77.32,10.17A8.6,8.6,0,0,0,66.16,140.46Z"/><path class="cls-2" d="M42,173a12.29,12.29,0,0,1-3.17-8.49,18.23,18.23,0,0,0-1.45-6.26c0-4.55.28-9.13-1.12-13.57-.27-3.46.16-6.92,0-10.38-.05-1.13.07-2.27-.08-3.39-.09-.69-.39-1.44.6-1.7a1.66,1.66,0,0,1,1.79.78c.43.56.51,1.3.92,1.86a22.88,22.88,0,0,0,7.86,11.08c6.08,4.1,7.59,10.1,6.79,16.91a69,69,0,0,1-3.26,14.71,1.7,1.7,0,0,1-.93.87,1.68,1.68,0,0,1-1.5-.06C46.55,173.82,44.12,173.83,42,173Z"/><path class="cls-7" d="M39.34,132.58c-1.1-.46-.83-1.61-1.23-2.42a1,1,0,0,0-1-.63c-.54,0-.63.4-.56.92a57.49,57.49,0,0,1-.25,14.18c-1-1.79-.34-3.73-.5-5.6-.52-6.08.74-12,1.53-18,.24-.29.78-.45.82-.16.24,1.69,1.4,3.13,1.27,4.9l0,.37C38.81,128.28,40.2,130.45,39.34,132.58Z"/><path class="cls-2" d="M80.82,226.3a82.41,82.41,0,0,0,3.6,11.92,74.53,74.53,0,0,1,3.06,12.09c.3,1.59-.29,3-.74,4.69-1.32-.48-1.55-1.75-2.34-2.47-1.35-2.52-1.69-5.34-2.41-8-.42-1.57-1.07-3.09-1.61-4.63-1.12-4.43-1.56-9-3.14-13.34-1-2.62-2.13-5.12-4.77-6.54-.34-1.29.53.47-.6-.27-1.28-2.76-3.33-8.7-5.24-11.17-1.18-4.24-2.31-8.49-3.58-12.7a2.56,2.56,0,0,1,.47-2.8,22,22,0,0,0,3.7-5.91c.57-1.13,1.63-1.11,2.65-1.1,1.62,0,3.24-.08,4.85-.19,7.39-2,15.13-3.17,20.85-9a7.9,7.9,0,0,1,1-.78,20.53,20.53,0,0,0,3.5-3.11c1.47-1.61,3-3.14,4.6-4.63.65-.61,1.34-1.7,2.38-.93.8.58.48,1.62.14,2.43-1.18,2.75-1.46,5.72-2.1,8.6-1.55,7-2.67,14.15-4.28,21.16-1.18,5.14-2.11,10.38-4.24,15.27-2,6-2.69,12.3-4.36,18.34-1.38,5-1.47,10.36-4,15-1.22-8.15-5-15.55-6.78-23.55-1.34-1.21-1.33-2.88-1.08-4.36.84-5-.4-9.7-1.83-14.34s-2.12-9.33-4-13.78c-.5-1.23-.74-2.58-1.27-3.07C77.77,200.73,81,213.14,80.82,226.3Z"/><path class="cls-2" d="M116.38,158.75l2.45-.15c.09,2.09-1.21,3.72-1.9,5.53-2.66,7-4.57,14.2-6.8,21.32-1.58,5.06-3.51,10-4.94,15.11-1.92,6.86-3.84,13.71-6.15,20.45-1.17,3.42-2.48,6.83-2.63,10.48-.14,3.33-2.08,5.48-4.58,7.8L97,214.81c.85-4.95,2.35-9.74,3.4-14.64,1.57-7.27,3-14.59,4.35-21.9.78-4.11,2.17-8,3.09-12.08a6,6,0,0,1,2.79-3.93C112.56,161.1,114.2,159.49,116.38,158.75Z"/><path class="cls-4" d="M116.38,158.75c-1.21,1.82-3.29,2.49-4.95,3.72a7.73,7.73,0,0,0-2.88,3.81c-3.74,10.37-4.89,21.31-7.26,32-1.07,4.83-2.18,9.65-3.23,14.48A6,6,0,0,1,97,214.81c-.16,0-1.94,5.59-2.1,5.59-.2-2.59,2.56-10.51,3.18-12.93,2.13-8.31,3.68-16.74,5.32-25.15.85-4.38,1.35-8.94,3.26-13.09a1.9,1.9,0,0,0,0-1.86c-3.71,2.87-6.21,7-10.29,9.44-.39-1,.38-1.63.94-2.25,3.4-3.72,7.15-7.09,10.19-11.16,1.81-2.42,4.9-3.23,7.42-4.76a1.09,1.09,0,0,1,1.44.15Z"/><path class="cls-2" d="M35.2,167.15c.42.86,1.33,1.13,2,1.65l2.66,4.11c.79,1.48.22,2.64-.91,3.62A21.63,21.63,0,0,1,33.9,180a8.35,8.35,0,0,0-3.9,3.25,5.43,5.43,0,0,1-.44.6,12.94,12.94,0,0,0-3.07,4.8,51.34,51.34,0,0,1-7,12.44c.77-1.11,1.62-2.16,2.41-3.25A14.76,14.76,0,0,1,25,195.18c2.81-2.19,5.06-5,7.93-7.13,2.08-1.55,4.07-3.27,6.18-4.75,3.32-2.32,7.12-2,10.85-.74a14.08,14.08,0,0,1,.89,1.19,11.2,11.2,0,0,0,8.93,4.1c1-.15,1.29-1.07,2-1.57,1.14-.85,2.31-1.33,3.3.23-.2,2.58-2.55,3.49-4,5a15,15,0,0,1-2.75,1.87,13.38,13.38,0,0,1-9.58,4.6,58.52,58.52,0,0,0-10.17,2c-4.85,1.26-9.65,2.66-14.41,4.23-2.45.87-5,2-6.45,4-1.71,2.35-4.42,3.26-6.28,5.29-.72.79-1.28.3-1.8-.47a7.35,7.35,0,0,1-.69-2.47c-.37-3.17-.59-6.36-2.53-9.14a7,7,0,0,0-2.08-2.24A3.22,3.22,0,0,1,2.67,196a5.11,5.11,0,0,0-.58-3.5c-1.5-2.89-1-5.28,1.11-7.54,1.38-1.07,1.29-2.62,1.15-4.06-.26-2.7,1-4.37,3.15-5.78,1.44-1,3.41-1.34,4.12-3.24,2.58-.26,3.81-2.87,6.29-3.52,1.51-.39,3.1-1,4.55-.87A55.31,55.31,0,0,0,35.2,167.15Z"/><path class="cls-7" d="M58.27,197a9.38,9.38,0,0,0-4.44,2,12.84,12.84,0,0,1-7.31,3c-3.19.44-6.18,1.67-9.35,2.11-6.16,1.5-12.66,1.81-18.46,5.44a4.84,4.84,0,0,1,2.63-3.14c1.15-.72,2.64-.93,3.46-2.18,6.28-3.09,13.11-4.56,19.83-6,3.42-.76,7-.78,10.27-2.39,1.32-.65,2.35-1.83,3.9-2l3.33-.88C60.76,194.75,59,195.44,58.27,197Z"/><path class="cls-4" d="M58.81,193.88c-3.84,2.85-7.95,4.78-12.91,4.74-3.11,0-6,1.22-9,2.13-4,1.23-8.05,2.4-12.08,3.6l-.66-.07c5.22-3.46,11.48-3.79,17.22-5.7a28.28,28.28,0,0,1,7.44-1.21c3.55-.19,6.44-2.36,9.51-3.93Z"/><path class="cls-4" d="M65.09,186.52c-1.42-.93-2.53-.71-3.37.82-.41.74-.82,1.56-1.93,1.32a1.68,1.68,0,0,1-.35-1.13c.38-1.49-.11-3.16.94-4.51.69-.7,1.26.11,1.89.14a2.6,2.6,0,0,1,1,0c.31.18.53.38.27.76-.06,1.54,1,1.42,2.08,1.54,2.87.3,5.54-.81,8.33-1.07,1.34-.45,1.58.84,2.09,1.5.2.25-.7.29-1,.57-2.55.71-5.25-.34-7.78.66Z"/><path class="cls-3" d="M41,174.49l1.52-.57c.9-1.1,2-.82,3.06-.39a19.11,19.11,0,0,1,3.71,2.39,5.28,5.28,0,0,1,1,5.25c-.59,1-1.51.9-2.5.8-4-.37-7.41.18-10.69,3.22-3.12,2.9-7,5.07-9.89,8.3-.62.68-1.44,1.14-2.29.48s-.14-1.41.11-2.1a51.66,51.66,0,0,1,4.49-8.48l0,0c1.32-2.08,3.42-3.12,5.55-4.07C37.43,178.24,39,176.09,41,174.49Z"/><path class="cls-4" d="M41,174.49a14.21,14.21,0,0,1-7.58,6.07c-1.65.57-2.32,2.36-4,2.84.29-2,2-2.81,3.49-3.52a32.84,32.84,0,0,0,5.23-3.41,3.57,3.57,0,0,0,1.74-3.54Z"/><path class="cls-4" d="M48.74,176.12c-2-1.07-3.4-3.62-6.24-2.2l-.5-1c3.05-.8,5.32,1.27,7.92,2.16C49.92,175.91,49.33,176,48.74,176.12Z"/><path class="cls-4" d="M131.06,108.93a33.1,33.1,0,0,0,3.3-10.33,24.44,24.44,0,0,1,4-10,3.9,3.9,0,0,1-.15,1.28c-2.34,4.72-3,9.9-4.28,14.92-.47,1.84-1.1,3.68-2.84,4.82Q130.66,109.3,131.06,108.93Z"/><path class="cls-4" d="M158.33,63.92l-1,1.61c.28-6.18-1.76-11.95-3.2-17.82a3.9,3.9,0,0,1,1.88,3C156.82,55.09,158.49,59.35,158.33,63.92Z"/><path class="cls-4" d="M131.06,108.93l.07.66c-1.35,1.37.35,2.71,0,4.07a3.68,3.68,0,0,0,.54,2.76c-.75.6-1.64.79-1.57-.44.1-1.84-.75-3.53-.56-5.34l1-1.56A3.6,3.6,0,0,0,131.06,108.93Z"/><path class="cls-4" d="M152.53,41.29a34.57,34.57,0,0,1,1.58,6.45C152.35,45.89,151.5,43.82,152.53,41.29Z"/><path class="cls-4" d="M140.4,84.28l.6.63c-1,1.15-1.15,2.88-2.61,3.69C138.37,86.84,139.8,85.75,140.4,84.28Z"/><path class="cls-4" d="M151.46,34.26A1.27,1.27,0,0,1,152,33c1.71.59.47,2.15,1,3.12l-.47,1.66C151.22,36.92,152.84,35.13,151.46,34.26Z"/><path class="cls-4" d="M141.49,82.78c-.9-1-.33-2.06-.35-3.18.8.4.84,1.12,1,1.75A2.05,2.05,0,0,0,141.49,82.78Z"/><path class="cls-4" d="M114.79,139.3l.07-2a3,3,0,0,0,1.8,1.31,3.51,3.51,0,0,1,3,3.07c.27,2,3,2.43,3,4.58-1.63-1.28-3.2-2.6-3.92-4.64S116.45,139.48,114.79,139.3Z"/><path class="cls-4" d="M129,97a13.1,13.1,0,0,1,0,7.78,3.17,3.17,0,0,1,0-.47,23,23,0,0,1-.08-6.86A2.2,2.2,0,0,1,129,97Z"/><path class="cls-4" d="M128.88,97.43l.08,6.86A10.84,10.84,0,0,1,128.88,97.43Z"/><path class="cls-2" d="M153.58,14.21C154.95,12,157.23,10.76,159,9c.66-.63,1.27-.55,1.71.22s1.33,1.62,1.22,2.81c-.42,4.45.94,8.69,1.58,13a3.58,3.58,0,0,0,.55,1.71c3,3.56,2.68,7.07.61,11.06-2.73,5.3-2.59,11.45-4.31,17.08-.15.49,0,1.06-.87,1.38-2.21-7.31-5.88-14.19-4.05-22.36.64-2.87.72-5.81,2.07-8.58s-.31-4.72-3.21-4.45a3.49,3.49,0,0,1-3.09-.89c-1.71-1.66-3.12-.89-4.33.74a2.59,2.59,0,0,0-.24.46c-2.95,6.35-6.4,12.51-8.44,19.22-1,3.37-2.27,6.62-3.51,9.89-1.38.16-.37-1.27-1-1.57-2-3.92-4.44-7.65-4.28-12.34a1.65,1.65,0,0,0-2-1.78v0c.15-2.17-.3-4.3,1.65-6.24,1.49-1.48.67-4.11,1.44-6.15.66-1.77,1.2-3.61,1.84-5.41.73-2.06,1.64-3.49,4.21-3.29,1.46.11,2.38-1.26,3.41-2.19,1.7-1.52,3-1.16,3.35,1,.1.69.44,1.22.55,1.87.63,3.81,1.84,4.56,5.57,3.57C151,16.88,152,15.22,153.58,14.21Z"/><path class="cls-4" d="M146.25,29.4l-.56-.57c.77-2,1.52-4,2.31-6.05.28-.72.5-1.6,1.52-1.51a1.5,1.5,0,0,1,1.35,1.4c.22,1.8.93,1.73,2.2.8.86-.63,2.16-1.58,2.94-.4s-.36,2.06-1.4,2.68c0-.7.76-2-1-1.1-1.49.74-3.21,2.55-3.86-1-.19-1-1-.05-1.29.53C147.69,25.91,147,27.66,146.25,29.4Z"/><path class="cls-4" d="M153,36.16c-.87-.87-.19-2.24-1-3.12.89-2.44,1-5.15,2.65-7.34C153.54,29.11,154,32.75,153,36.16Z"/><path class="cls-2" d="M133.68,48.78l1,1.57a3.2,3.2,0,0,1-.48,1.94c-.31.48-.71.79-1.24.42a.67.67,0,0,1,0-1.1C133.92,50.82,133.62,49.76,133.68,48.78Z"/><path class="cls-2" d="M153.58,14.21c-1.22,1.42-2.21,3.11-4.19,3.67C150.61,16.45,151.6,14.76,153.58,14.21Z"/><path class="cls-8" d="M116.4,158.78c-4,1.91-8.16,3.65-10.63,7.72-2.05,3.38-5.57,5.4-8,8.44-.48.6-1.18,1-1.36,1.86,0,.12.59.21.49.28C92.36,181,86.17,183,80.54,184.65a20.13,20.13,0,0,1-2.5.64c-.41.07-1-.1-.93-.63a.74.74,0,0,1,1.05-.74,44.2,44.2,0,0,0,21.58-14.2c3.92-4.69,8-9.45,13.48-12.57,2.09-1.19,4.35-2.08,6.83-1Z"/><path class="cls-4" d="M78.16,183.92c-.2.16-.53.3-.57.5-.2.93.49.43.74.36,5.59-1.48,11.09-3.17,15.8-6.73a3.11,3.11,0,0,1,2.06-1c-3.4,4.25-8.32,5.8-13.23,7.22-2.64.76-5.12,2.14-8,2.16,1.09-1.45-.36-1.57-1.08-2.06a10.36,10.36,0,0,1,3.6-1.1Z"/><path class="cls-9" d="M176.56,88.64c2.78,2.81,6.5,4.29,9.48,6.81.92,2.35,2.85,3.83,4.65,5.42a25.54,25.54,0,0,1,3.46,3.54,17.62,17.62,0,0,1-6.45-4.76c-6.76-7.26-15.54-11.09-24.46-14.72a3.52,3.52,0,0,0-1.29,0c-.14-.41-1.5-1.22.3-1a23.61,23.61,0,0,1,10,3.13A11.65,11.65,0,0,0,176.56,88.64Z"/><path class="cls-3" d="M173.67,69.71a58.41,58.41,0,0,0,8.18,4.22c2,2.53,4.36,4.82,5.51,8.07a34.18,34.18,0,0,1-3.11-2.37c-5.08-4.86-11.57-6.17-18.14-7.35-2.47-.44-4.93-.94-7.36-1.55-1.75-.44,0-1.81-.54-2.61-.2-2.63,1.63-2,3.13-2C165.74,68.06,168.9,69.28,173.67,69.71Z"/><path class="cls-4" d="M80.82,226.3a19.56,19.56,0,0,1-.75-9c.67-3.94-1.18-7.67-2.07-11.45-1-4.21-2.37-8.32-3.54-12.49-.54-1.91-1.42-3.66-2.1-5.57a6.3,6.3,0,0,1,2.43,3.55c2.37,6.72,3.81,13.7,5.73,20.54.8,2.86.19,5.89.35,8.85a12.68,12.68,0,0,0,.51,3.86C81.24,225.2,81.45,225.9,80.82,226.3Z"/><path class="cls-4" d="M64.59,160.32l.43,0c.54.46.49,1.7,1.93.55,2.6-2.08,4.86-4.47,7.24-6.75,1.53-1.47,3.14-2.85,5.53-1.69a1.29,1.29,0,0,0,1,0c3.81-2,8.19-1.08,12.16-2.37,2-.65,4.07-1.65,6.26-.34.58.35,1.12-.31,1.69-.46,4.06-1.09,8-.34,12.21.6-.9.79-1.52.29-2.14.19-2.17-.36-4.28-.49-6.34.66a13.82,13.82,0,0,1-4.71,1.41c-4.82.74-8.91,3.27-13,5.72-2.29,1.38-4.39,3.07-6.58,4.63l-.25-.29a2.14,2.14,0,0,1,1.16-2.41c5-3,9.64-6.86,15.65-8.49a5.8,5.8,0,0,0-3.48.34,15.79,15.79,0,0,1-6.66,1,7.41,7.41,0,0,0-3.79.81,6.24,6.24,0,0,1-3.8.69,4.68,4.68,0,0,0-4.9,2.25,23,23,0,0,1-4.14,4c-2.29,2-3.79,4.23-3.62,7.37-.24.51-.5,1-1.14,1.12A10,10,0,0,1,64.59,160.32Z"/><path class="cls-4" d="M80.3,162.48c-.11.13-.2.35-.33.38-5.55,1.29-8.5,5.95-12.28,9.51a1.32,1.32,0,0,1-.37-1.12c2.75-3.61,5.25-7.51,10-8.95,1-.3,2-.7,3,.08Z"/><path class="cls-4" d="M63.51,183.92l-.6-.58a22.35,22.35,0,0,1,2.39-10c1.19.39.53,1.42.74,2.14A36.92,36.92,0,0,1,63.51,183.92Z"/><path class="cls-4" d="M66,175.48c-.74-.57-.32-1.45-.57-2.15a4,4,0,0,1,.06-4.54L66,167.7c1.09.87.54,2.54,1.65,3.4v1.28Z"/><path class="cls-2" d="M65.53,168.78q0,2.27-.05,4.54l-2.56,10-.53.48c-1.65-1-1-2.75-1.23-4.18-.62-7.34-3.21-14-6.58-20.5a5.78,5.78,0,0,1-.51-2.8c0-5.39-1.78-9.88-6.4-13a3.12,3.12,0,0,1-.7-.77,2.77,2.77,0,0,1-.31-.82c0-3.14-.85-6.15-1.44-9.2a5.43,5.43,0,0,1,0-3.07c.38-1,1-1.79,2-.58,1.13,3.93,3.59,7.16,6,10.22a57.28,57.28,0,0,1,9.5,17.47,9.54,9.54,0,0,0,1.79,3.71A35.93,35.93,0,0,0,65.53,168.78Z"/><path class="cls-7" d="M39.39,125.78c2.8.32,2.34-2.78,4-4,.15,2.39,1.73,4,2.24,6.06-1.12,3.38.13,6.58.74,9.83.21,1.1.73,2.17-.54,3-2.1-.22-3.08-1.88-3.89-3.42-1.87-3.57-3.6-7.24-2.57-11.49Z"/><path class="cls-4" d="M39.43,117.36c.13-3-1.31-5.76-1.62-8.76a26.42,26.42,0,0,1,3.62,8.32c.4,1.43.74,2.57,2.24,3.05l-2.12,0C38.84,120.71,40.07,118.29,39.43,117.36Z"/><path class="cls-4" d="M45.69,140.55c.9-1,.29-2.09.08-3.17-.6-3.16-2-6.32-.1-9.52.77,0,1.55,0,1.58,1.05-1.93-.81-1.62.78-1.52,1.62a59,59,0,0,0,1.17,6.85,14.75,14.75,0,0,1,.28,4.61A1.37,1.37,0,0,1,45.69,140.55Z"/><path class="cls-4" d="M39.43,117.36c.51,1,.62,2.39,2.11,2.66-.28,1.16.67,3.09-1,3.26-.88.09-1.59-1.87-1.71-3.25,0-.17,0-.34,0-.51C39.65,119,39.27,118.09,39.43,117.36Z"/><path class="cls-4" d="M65.68,148.29a16.26,16.26,0,0,1,.36-6.35l0,4.79C66.09,147.29,66.22,147.88,65.68,148.29Z"/><path class="cls-4" d="M47.32,142.45c5.21,3.27,7.27,8.16,7.26,14.13a3.84,3.84,0,0,0,.35,1.76,57.29,57.29,0,0,1,6.94,20.8.83.83,0,0,1-1.09.14c-1.66-3.29-1.69-7.06-3-10.47a46.23,46.23,0,0,0-2.91-6.66c-.19,4.15-2,7.62-2.63,11.4a2,2,0,0,1-.91,1.52c-.5.1-.73-.21-.9-.6,1-4.57,2.5-9,2.9-13.72.46-5.44.67-10.86-3.7-15.12-.93-.9-2-1.66-3-2.49A.86.86,0,0,1,47.32,142.45Z"/><path class="cls-4" d="M47.32,142.45l-.71.7c-3.07-3.08-6.44-6-7.27-10.58-.29-2.28-1.6-4.57.07-6.83.06,5.8,1.61,11,6.27,14.8L47.17,142A1.56,1.56,0,0,1,47.32,142.45Z"/><path class="cls-4" d="M50.41,174.48l.65.65c1.14,2.63.67,5.33.38,8-.21.46-.45.87-1.07.78l-.55-1a1.56,1.56,0,0,1,0-1.7c.1-1.82.16-3.62-1.12-5.14l1.17-1Z"/><path class="cls-2" d="M102.77,174.68c-3.87,21.79-9.66,42.88-14.25,65a92,92,0,0,1-4.61-13.57c-.84-2.83.17-6.14-2.4-8.57-.63-.6-.35-1.86.45-2.61a3.25,3.25,0,0,0,.7-3.62c-2-6.82-3.35-13.85-6-20.48-.71-1.77-.13-2.29,1.62-2.83,5.71-1.74,11.65-3,16.56-6.71C97.52,179.3,99.68,176.65,102.77,174.68Z"/><path class="cls-4" d="M49.86,181.26l0,1.7c-3.34-1.5-8.81-.24-11.6,1.87-4.91,3.73-9.42,7.89-14.08,11.9A15.5,15.5,0,0,0,20.46,201c-.41.75-.74,1.57-1.65,1.93a1.72,1.72,0,0,1,.23-2.39c3.67-4.31,5.52-9.62,8.06-14.55a8.48,8.48,0,0,1,3.06-3.36c0,2.9-3.41,5.28-4.08,7.9-.13.49-.51.92-.66,1.41s-.91,1.13-.26,1.62,1.31-.12,1.77-.62a34.21,34.21,0,0,1,6-5.41c2.23-1.5,4.38-3.09,6.48-4.77,2.3-1.84,5.26-1.49,8-1.27C48.27,181.59,49.09,181.91,49.86,181.26Z"/><path class="cls-4" d="M50.37,183.94l.61-.61a32.49,32.49,0,0,0,8.86,4.26l0,1.07C56,188.33,52.62,187.3,50.37,183.94Z"/><path class="cls-2" d="M59.84,187.59c-3.61-.06-6.67-1.25-8.86-4.26q0-4.1.08-8.21c1-4.85,3.18-9.4,3.5-14.46,3.75,5.69,5.13,12.06,6.38,18.48a3.54,3.54,0,0,1-.06,3.71C59.72,184.26,60.91,186.17,59.84,187.59Z"/><path class="cls-4" d="M60.87,182.86q0-1.86.06-3.71h.93c.3,1.55-.39,3.21.52,4.68C61,184.94,61.69,182.7,60.87,182.86Z"/><path class="cls-2" d="M67.66,171.1c-.86.36-1.49.36-1.51-.84,0-.85-.09-1.7-.14-2.55-.74-3.33,1.09-5.32,3.33-7.46a39.11,39.11,0,0,0,5.31-5.33,3.07,3.07,0,0,1,3.83-1.38,3,3,0,0,0,2.3,0c4.23-2.45,9.29-.73,13.57-2.82,1.27-.62,2.54-.36,4,.64a55.32,55.32,0,0,0-10.8,5c-2.17,1.25-3.93,3.12-6.31,4.06-.77.3-1,1.18-1.08,2-3.29.35-6.14,1.37-8.19,4.28A36.26,36.26,0,0,1,67.66,171.1Z"/></g></g></g></svg>